<svg width="1280" height="56" viewBox="0 0 1280 56" fill="none" xmlns="http://www.w3.org/2000/svg">
<g clip-path="url(#clip0_3119_578)">
<rect width="2527" height="56" transform="translate(-623.5)" fill="#67E8F9"/>
<path d="M-55.66 30.8V28.68H-49.74C-49.0333 28.68 -48.4733 28.4933 -48.06 28.12C-47.6467 27.7333 -47.44 27.2 -47.44 26.52C-47.44 25.8133 -47.6467 25.2733 -48.06 24.9C-48.4733 24.5267 -49.0333 24.34 -49.74 24.34H-55.34V35H-58V22.06H-49.98C-49.26 22.06 -48.5867 22.1467 -47.96 22.32C-47.32 22.4933 -46.7667 22.76 -46.3 23.12C-45.82 23.48 -45.4467 23.94 -45.18 24.5C-44.9133 25.06 -44.78 25.7333 -44.78 26.52C-44.78 27.2933 -44.9133 27.9533 -45.18 28.5C-45.4467 29.0467 -45.82 29.4933 -46.3 29.84C-46.7667 30.1733 -47.32 30.42 -47.96 30.58C-48.5867 30.7267 -49.26 30.8 -49.98 30.8H-55.66ZM-38.1084 35.22C-39.0951 35.22 -39.9951 35.0067 -40.8084 34.58C-41.6084 34.14 -42.2484 33.5333 -42.7284 32.76C-43.1951 31.9733 -43.4284 31.0667 -43.4284 30.04C-43.4284 28.9867 -43.1884 28.0733 -42.7084 27.3C-42.2284 26.5267 -41.5818 25.9267 -40.7684 25.5C-39.9418 25.06 -39.0084 24.84 -37.9684 24.84C-36.8218 24.84 -35.9018 25.0733 -35.2084 25.54C-34.5018 25.9933 -33.9884 26.6133 -33.6684 27.4C-33.3484 28.1867 -33.1884 29.0667 -33.1884 30.04C-33.1884 30.6267 -33.2818 31.2267 -33.4684 31.84C-33.6551 32.44 -33.9418 33 -34.3284 33.52C-34.7151 34.0267 -35.2218 34.44 -35.8484 34.76C-36.4751 35.0667 -37.2284 35.22 -38.1084 35.22ZM-37.2684 33.22C-36.4818 33.22 -35.8018 33.0867 -35.2284 32.82C-34.6551 32.5533 -34.2151 32.18 -33.9084 31.7C-33.6018 31.22 -33.4484 30.6667 -33.4484 30.04C-33.4484 29.36 -33.6084 28.7867 -33.9284 28.32C-34.2351 27.84 -34.6751 27.48 -35.2484 27.24C-35.8084 26.9867 -36.4818 26.86 -37.2684 26.86C-38.3751 26.86 -39.2351 27.1533 -39.8484 27.74C-40.4618 28.3133 -40.7684 29.08 -40.7684 30.04C-40.7684 30.68 -40.6218 31.24 -40.3284 31.72C-40.0351 32.1867 -39.6284 32.5533 -39.1084 32.82C-38.5751 33.0867 -37.9618 33.22 -37.2684 33.22ZM-33.4484 25.06H-30.8484V35H-33.2684C-33.2684 35 -33.2884 34.8733 -33.3284 34.62C-33.3551 34.3533 -33.3818 34.02 -33.4084 33.62C-33.4351 33.22 -33.4484 32.8267 -33.4484 32.44V25.06ZM-29.1953 25.06H-21.4753V27.08H-29.1953V25.06ZM-26.6353 22.34H-24.0353V35H-26.6353V22.34ZM-16.8434 20.7V22.98H-19.8634V20.7H-16.8434ZM-19.6634 25.06H-17.0634V35H-19.6634V25.06ZM-14.4719 25.06H-11.8719V35H-14.4719V25.06ZM-7.25187 24.84C-6.63854 24.84 -6.07187 24.92 -5.55187 25.08C-5.03187 25.24 -4.57854 25.4867 -4.19187 25.82C-3.80521 26.1533 -3.50521 26.58 -3.29187 27.1C-3.07854 27.6067 -2.97187 28.2133 -2.97187 28.92V35H-5.57188V29.38C-5.57188 28.54 -5.77854 27.9267 -6.19187 27.54C-6.59187 27.14 -7.25187 26.94 -8.17187 26.94C-8.86521 26.94 -9.49187 27.0733 -10.0519 27.34C-10.6119 27.6067 -11.0652 27.9467 -11.4119 28.36C-11.7585 28.76 -11.9585 29.18 -12.0119 29.62L-12.0319 28.6C-11.9652 28.1333 -11.8119 27.68 -11.5719 27.24C-11.3319 26.8 -11.0119 26.4 -10.6119 26.04C-10.1985 25.6667 -9.71187 25.3733 -9.15187 25.16C-8.59187 24.9467 -7.95854 24.84 -7.25187 24.84ZM-1.00469 31.7H1.39531C1.54198 32.1533 1.84198 32.5267 2.29531 32.82C2.76198 33.1 3.36865 33.24 4.11531 33.24C4.62198 33.24 5.01531 33.1933 5.29531 33.1C5.57531 33.0067 5.76865 32.8733 5.87531 32.7C5.98198 32.5133 6.03531 32.3067 6.03531 32.08C6.03531 31.8 5.94865 31.5867 5.77531 31.44C5.60198 31.28 5.33531 31.1533 4.97531 31.06C4.61531 30.9667 4.15531 30.88 3.59531 30.8C3.03531 30.7067 2.49531 30.5933 1.97531 30.46C1.45531 30.3267 0.995313 30.1533 0.595313 29.94C0.195313 29.7133 -0.124687 29.4333 -0.364687 29.1C-0.591354 28.7533 -0.704687 28.3333 -0.704687 27.84C-0.704687 27.36 -0.591354 26.9333 -0.364687 26.56C-0.124687 26.1867 0.201979 25.8733 0.615313 25.62C1.04198 25.3667 1.53531 25.1733 2.09531 25.04C2.66865 24.9067 3.28198 24.84 3.93531 24.84C4.92198 24.84 5.74198 24.9867 6.39531 25.28C7.04865 25.56 7.53531 25.96 7.85531 26.48C8.18865 26.9867 8.35531 27.5733 8.35531 28.24H6.05531C5.94865 27.7467 5.73531 27.3933 5.41531 27.18C5.09531 26.9533 4.60198 26.84 3.93531 26.84C3.28198 26.84 2.78865 26.94 2.45531 27.14C2.12198 27.34 1.95531 27.6133 1.95531 27.96C1.95531 28.24 2.05531 28.46 2.25531 28.62C2.46865 28.7667 2.77531 28.8867 3.17531 28.98C3.58865 29.0733 4.10198 29.1733 4.71531 29.28C5.23531 29.3867 5.72865 29.5067 6.19531 29.64C6.67531 29.7733 7.10198 29.9467 7.47531 30.16C7.84865 30.36 8.14198 30.6333 8.35531 30.98C8.58198 31.3133 8.69531 31.74 8.69531 32.26C8.69531 32.9 8.50865 33.44 8.13531 33.88C7.77531 34.32 7.25531 34.66 6.57531 34.9C5.89531 35.1267 5.08198 35.24 4.13531 35.24C3.29531 35.24 2.56865 35.1533 1.95531 34.98C1.35531 34.7933 0.855313 34.56 0.455313 34.28C0.0553126 33.9867 -0.258021 33.68 -0.484688 33.36C-0.698021 33.0267 -0.844687 32.7133 -0.924687 32.42C-1.00469 32.1267 -1.03135 31.8867 -1.00469 31.7Z" fill="black"/>
<path d="M40.5621 22.5345C40.8843 21.6639 42.1157 21.6639 42.4379 22.5345L43.5012 25.408C43.6024 25.6818 43.8182 25.8976 44.092 25.9988L46.9655 27.0621C47.8361 27.3843 47.8361 28.6157 46.9655 28.9379L44.092 30.0012C43.8182 30.1024 43.6024 30.3182 43.5012 30.592L42.4379 33.4655C42.1157 34.3361 40.8843 34.3361 40.5621 33.4655L39.4988 30.592C39.3976 30.3182 39.1818 30.1024 38.908 30.0012L36.0345 28.9379C35.1639 28.6157 35.1639 27.3843 36.0345 27.0621L38.908 25.9988C39.1818 25.8976 39.3976 25.6818 39.4988 25.408L40.5621 22.5345Z" fill="black"/>
<path d="M77.34 30.8V28.68H83.26C83.9667 28.68 84.5267 28.4933 84.94 28.12C85.3533 27.7333 85.56 27.2 85.56 26.52C85.56 25.8133 85.3533 25.2733 84.94 24.9C84.5267 24.5267 83.9667 24.34 83.26 24.34H77.66V35H75V22.06H83.02C83.74 22.06 84.4133 22.1467 85.04 22.32C85.68 22.4933 86.2333 22.76 86.7 23.12C87.18 23.48 87.5533 23.94 87.82 24.5C88.0867 25.06 88.22 25.7333 88.22 26.52C88.22 27.2933 88.0867 27.9533 87.82 28.5C87.5533 29.0467 87.18 29.4933 86.7 29.84C86.2333 30.1733 85.68 30.42 85.04 30.58C84.4133 30.7267 83.74 30.8 83.02 30.8H77.34ZM94.8916 35.22C93.9049 35.22 93.0049 35.0067 92.1916 34.58C91.3916 34.14 90.7516 33.5333 90.2716 32.76C89.8049 31.9733 89.5716 31.0667 89.5716 30.04C89.5716 28.9867 89.8116 28.0733 90.2916 27.3C90.7716 26.5267 91.4182 25.9267 92.2316 25.5C93.0582 25.06 93.9916 24.84 95.0316 24.84C96.1782 24.84 97.0982 25.0733 97.7916 25.54C98.4982 25.9933 99.0116 26.6133 99.3316 27.4C99.6516 28.1867 99.8116 29.0667 99.8116 30.04C99.8116 30.6267 99.7182 31.2267 99.5316 31.84C99.3449 32.44 99.0582 33 98.6716 33.52C98.2849 34.0267 97.7782 34.44 97.1516 34.76C96.5249 35.0667 95.7716 35.22 94.8916 35.22ZM95.7316 33.22C96.5182 33.22 97.1982 33.0867 97.7716 32.82C98.3449 32.5533 98.7849 32.18 99.0916 31.7C99.3982 31.22 99.5516 30.6667 99.5516 30.04C99.5516 29.36 99.3916 28.7867 99.0716 28.32C98.7649 27.84 98.3249 27.48 97.7516 27.24C97.1916 26.9867 96.5182 26.86 95.7316 26.86C94.6249 26.86 93.7649 27.1533 93.1516 27.74C92.5382 28.3133 92.2316 29.08 92.2316 30.04C92.2316 30.68 92.3782 31.24 92.6716 31.72C92.9649 32.1867 93.3716 32.5533 93.8916 32.82C94.4249 33.0867 95.0382 33.22 95.7316 33.22ZM99.5516 25.06H102.152V35H99.7316C99.7316 35 99.7116 34.8733 99.6716 34.62C99.6449 34.3533 99.6182 34.02 99.5916 33.62C99.5649 33.22 99.5516 32.8267 99.5516 32.44V25.06ZM103.805 25.06H111.525V27.08H103.805V25.06ZM106.365 22.34H108.965V35H106.365V22.34ZM116.157 20.7V22.98H113.137V20.7H116.157ZM113.337 25.06H115.937V35H113.337V25.06ZM118.528 25.06H121.128V35H118.528V25.06ZM125.748 24.84C126.361 24.84 126.928 24.92 127.448 25.08C127.968 25.24 128.421 25.4867 128.808 25.82C129.195 26.1533 129.495 26.58 129.708 27.1C129.921 27.6067 130.028 28.2133 130.028 28.92V35H127.428V29.38C127.428 28.54 127.221 27.9267 126.808 27.54C126.408 27.14 125.748 26.94 124.828 26.94C124.135 26.94 123.508 27.0733 122.948 27.34C122.388 27.6067 121.935 27.9467 121.588 28.36C121.241 28.76 121.041 29.18 120.988 29.62L120.968 28.6C121.035 28.1333 121.188 27.68 121.428 27.24C121.668 26.8 121.988 26.4 122.388 26.04C122.801 25.6667 123.288 25.3733 123.848 25.16C124.408 24.9467 125.041 24.84 125.748 24.84ZM131.995 31.7H134.395C134.542 32.1533 134.842 32.5267 135.295 32.82C135.762 33.1 136.369 33.24 137.115 33.24C137.622 33.24 138.015 33.1933 138.295 33.1C138.575 33.0067 138.769 32.8733 138.875 32.7C138.982 32.5133 139.035 32.3067 139.035 32.08C139.035 31.8 138.949 31.5867 138.775 31.44C138.602 31.28 138.335 31.1533 137.975 31.06C137.615 30.9667 137.155 30.88 136.595 30.8C136.035 30.7067 135.495 30.5933 134.975 30.46C134.455 30.3267 133.995 30.1533 133.595 29.94C133.195 29.7133 132.875 29.4333 132.635 29.1C132.409 28.7533 132.295 28.3333 132.295 27.84C132.295 27.36 132.409 26.9333 132.635 26.56C132.875 26.1867 133.202 25.8733 133.615 25.62C134.042 25.3667 134.535 25.1733 135.095 25.04C135.669 24.9067 136.282 24.84 136.935 24.84C137.922 24.84 138.742 24.9867 139.395 25.28C140.049 25.56 140.535 25.96 140.855 26.48C141.189 26.9867 141.355 27.5733 141.355 28.24H139.055C138.949 27.7467 138.735 27.3933 138.415 27.18C138.095 26.9533 137.602 26.84 136.935 26.84C136.282 26.84 135.789 26.94 135.455 27.14C135.122 27.34 134.955 27.6133 134.955 27.96C134.955 28.24 135.055 28.46 135.255 28.62C135.469 28.7667 135.775 28.8867 136.175 28.98C136.589 29.0733 137.102 29.1733 137.715 29.28C138.235 29.3867 138.729 29.5067 139.195 29.64C139.675 29.7733 140.102 29.9467 140.475 30.16C140.849 30.36 141.142 30.6333 141.355 30.98C141.582 31.3133 141.695 31.74 141.695 32.26C141.695 32.9 141.509 33.44 141.135 33.88C140.775 34.32 140.255 34.66 139.575 34.9C138.895 35.1267 138.082 35.24 137.135 35.24C136.295 35.24 135.569 35.1533 134.955 34.98C134.355 34.7933 133.855 34.56 133.455 34.28C133.055 33.9867 132.742 33.68 132.515 33.36C132.302 33.0267 132.155 32.7133 132.075 32.42C131.995 32.1267 131.969 31.8867 131.995 31.7Z" fill="black"/>
<path d="M173.562 22.5345C173.884 21.6639 175.116 21.6639 175.438 22.5345L176.501 25.408C176.602 25.6818 176.818 25.8976 177.092 25.9988L179.965 27.0621C180.836 27.3843 180.836 28.6157 179.965 28.9379L177.092 30.0012C176.818 30.1024 176.602 30.3182 176.501 30.592L175.438 33.4655C175.116 34.3361 173.884 34.3361 173.562 33.4655L172.499 30.592C172.398 30.3182 172.182 30.1024 171.908 30.0012L169.035 28.9379C168.164 28.6157 168.164 27.3843 169.035 27.0621L171.908 25.9988C172.182 25.8976 172.398 25.6818 172.499 25.408L173.562 22.5345Z" fill="black"/>
<path d="M210.34 30.8V28.68H216.26C216.967 28.68 217.527 28.4933 217.94 28.12C218.353 27.7333 218.56 27.2 218.56 26.52C218.56 25.8133 218.353 25.2733 217.94 24.9C217.527 24.5267 216.967 24.34 216.26 24.34H210.66V35H208V22.06H216.02C216.74 22.06 217.413 22.1467 218.04 22.32C218.68 22.4933 219.233 22.76 219.7 23.12C220.18 23.48 220.553 23.94 220.82 24.5C221.087 25.06 221.22 25.7333 221.22 26.52C221.22 27.2933 221.087 27.9533 220.82 28.5C220.553 29.0467 220.18 29.4933 219.7 29.84C219.233 30.1733 218.68 30.42 218.04 30.58C217.413 30.7267 216.74 30.8 216.02 30.8H210.34ZM227.892 35.22C226.905 35.22 226.005 35.0067 225.192 34.58C224.392 34.14 223.752 33.5333 223.272 32.76C222.805 31.9733 222.572 31.0667 222.572 30.04C222.572 28.9867 222.812 28.0733 223.292 27.3C223.772 26.5267 224.418 25.9267 225.232 25.5C226.058 25.06 226.992 24.84 228.032 24.84C229.178 24.84 230.098 25.0733 230.792 25.54C231.498 25.9933 232.012 26.6133 232.332 27.4C232.652 28.1867 232.812 29.0667 232.812 30.04C232.812 30.6267 232.718 31.2267 232.532 31.84C232.345 32.44 232.058 33 231.672 33.52C231.285 34.0267 230.778 34.44 230.152 34.76C229.525 35.0667 228.772 35.22 227.892 35.22ZM228.732 33.22C229.518 33.22 230.198 33.0867 230.772 32.82C231.345 32.5533 231.785 32.18 232.092 31.7C232.398 31.22 232.552 30.6667 232.552 30.04C232.552 29.36 232.392 28.7867 232.072 28.32C231.765 27.84 231.325 27.48 230.752 27.24C230.192 26.9867 229.518 26.86 228.732 26.86C227.625 26.86 226.765 27.1533 226.152 27.74C225.538 28.3133 225.232 29.08 225.232 30.04C225.232 30.68 225.378 31.24 225.672 31.72C225.965 32.1867 226.372 32.5533 226.892 32.82C227.425 33.0867 228.038 33.22 228.732 33.22ZM232.552 25.06H235.152V35H232.732C232.732 35 232.712 34.8733 232.672 34.62C232.645 34.3533 232.618 34.02 232.592 33.62C232.565 33.22 232.552 32.8267 232.552 32.44V25.06ZM236.805 25.06H244.525V27.08H236.805V25.06ZM239.365 22.34H241.965V35H239.365V22.34ZM249.157 20.7V22.98H246.137V20.7H249.157ZM246.337 25.06H248.937V35H246.337V25.06ZM251.528 25.06H254.128V35H251.528V25.06ZM258.748 24.84C259.361 24.84 259.928 24.92 260.448 25.08C260.968 25.24 261.421 25.4867 261.808 25.82C262.195 26.1533 262.495 26.58 262.708 27.1C262.921 27.6067 263.028 28.2133 263.028 28.92V35H260.428V29.38C260.428 28.54 260.221 27.9267 259.808 27.54C259.408 27.14 258.748 26.94 257.828 26.94C257.135 26.94 256.508 27.0733 255.948 27.34C255.388 27.6067 254.935 27.9467 254.588 28.36C254.241 28.76 254.041 29.18 253.988 29.62L253.968 28.6C254.035 28.1333 254.188 27.68 254.428 27.24C254.668 26.8 254.988 26.4 255.388 26.04C255.801 25.6667 256.288 25.3733 256.848 25.16C257.408 24.9467 258.041 24.84 258.748 24.84ZM264.995 31.7H267.395C267.542 32.1533 267.842 32.5267 268.295 32.82C268.762 33.1 269.369 33.24 270.115 33.24C270.622 33.24 271.015 33.1933 271.295 33.1C271.575 33.0067 271.769 32.8733 271.875 32.7C271.982 32.5133 272.035 32.3067 272.035 32.08C272.035 31.8 271.949 31.5867 271.775 31.44C271.602 31.28 271.335 31.1533 270.975 31.06C270.615 30.9667 270.155 30.88 269.595 30.8C269.035 30.7067 268.495 30.5933 267.975 30.46C267.455 30.3267 266.995 30.1533 266.595 29.94C266.195 29.7133 265.875 29.4333 265.635 29.1C265.409 28.7533 265.295 28.3333 265.295 27.84C265.295 27.36 265.409 26.9333 265.635 26.56C265.875 26.1867 266.202 25.8733 266.615 25.62C267.042 25.3667 267.535 25.1733 268.095 25.04C268.669 24.9067 269.282 24.84 269.935 24.84C270.922 24.84 271.742 24.9867 272.395 25.28C273.049 25.56 273.535 25.96 273.855 26.48C274.189 26.9867 274.355 27.5733 274.355 28.24H272.055C271.949 27.7467 271.735 27.3933 271.415 27.18C271.095 26.9533 270.602 26.84 269.935 26.84C269.282 26.84 268.789 26.94 268.455 27.14C268.122 27.34 267.955 27.6133 267.955 27.96C267.955 28.24 268.055 28.46 268.255 28.62C268.469 28.7667 268.775 28.8867 269.175 28.98C269.589 29.0733 270.102 29.1733 270.715 29.28C271.235 29.3867 271.729 29.5067 272.195 29.64C272.675 29.7733 273.102 29.9467 273.475 30.16C273.849 30.36 274.142 30.6333 274.355 30.98C274.582 31.3133 274.695 31.74 274.695 32.26C274.695 32.9 274.509 33.44 274.135 33.88C273.775 34.32 273.255 34.66 272.575 34.9C271.895 35.1267 271.082 35.24 270.135 35.24C269.295 35.24 268.569 35.1533 267.955 34.98C267.355 34.7933 266.855 34.56 266.455 34.28C266.055 33.9867 265.742 33.68 265.515 33.36C265.302 33.0267 265.155 32.7133 265.075 32.42C264.995 32.1267 264.969 31.8867 264.995 31.7Z" fill="black"/>
<path d="M306.562 22.5345C306.884 21.6639 308.116 21.6639 308.438 22.5345L309.501 25.408C309.602 25.6818 309.818 25.8976 310.092 25.9988L312.965 27.0621C313.836 27.3843 313.836 28.6157 312.965 28.9379L310.092 30.0012C309.818 30.1024 309.602 30.3182 309.501 30.592L308.438 33.4655C308.116 34.3361 306.884 34.3361 306.562 33.4655L305.499 30.592C305.398 30.3182 305.182 30.1024 304.908 30.0012L302.035 28.9379C301.164 28.6157 301.164 27.3843 302.035 27.0621L304.908 25.9988C305.182 25.8976 305.398 25.6818 305.499 25.408L306.562 22.5345Z" fill="black"/>
<path d="M343.34 30.8V28.68H349.26C349.967 28.68 350.527 28.4933 350.94 28.12C351.353 27.7333 351.56 27.2 351.56 26.52C351.56 25.8133 351.353 25.2733 350.94 24.9C350.527 24.5267 349.967 24.34 349.26 24.34H343.66V35H341V22.06H349.02C349.74 22.06 350.413 22.1467 351.04 22.32C351.68 22.4933 352.233 22.76 352.7 23.12C353.18 23.48 353.553 23.94 353.82 24.5C354.087 25.06 354.22 25.7333 354.22 26.52C354.22 27.2933 354.087 27.9533 353.82 28.5C353.553 29.0467 353.18 29.4933 352.7 29.84C352.233 30.1733 351.68 30.42 351.04 30.58C350.413 30.7267 349.74 30.8 349.02 30.8H343.34ZM360.892 35.22C359.905 35.22 359.005 35.0067 358.192 34.58C357.392 34.14 356.752 33.5333 356.272 32.76C355.805 31.9733 355.572 31.0667 355.572 30.04C355.572 28.9867 355.812 28.0733 356.292 27.3C356.772 26.5267 357.418 25.9267 358.232 25.5C359.058 25.06 359.992 24.84 361.032 24.84C362.178 24.84 363.098 25.0733 363.792 25.54C364.498 25.9933 365.012 26.6133 365.332 27.4C365.652 28.1867 365.812 29.0667 365.812 30.04C365.812 30.6267 365.718 31.2267 365.532 31.84C365.345 32.44 365.058 33 364.672 33.52C364.285 34.0267 363.778 34.44 363.152 34.76C362.525 35.0667 361.772 35.22 360.892 35.22ZM361.732 33.22C362.518 33.22 363.198 33.0867 363.772 32.82C364.345 32.5533 364.785 32.18 365.092 31.7C365.398 31.22 365.552 30.6667 365.552 30.04C365.552 29.36 365.392 28.7867 365.072 28.32C364.765 27.84 364.325 27.48 363.752 27.24C363.192 26.9867 362.518 26.86 361.732 26.86C360.625 26.86 359.765 27.1533 359.152 27.74C358.538 28.3133 358.232 29.08 358.232 30.04C358.232 30.68 358.378 31.24 358.672 31.72C358.965 32.1867 359.372 32.5533 359.892 32.82C360.425 33.0867 361.038 33.22 361.732 33.22ZM365.552 25.06H368.152V35H365.732C365.732 35 365.712 34.8733 365.672 34.62C365.645 34.3533 365.618 34.02 365.592 33.62C365.565 33.22 365.552 32.8267 365.552 32.44V25.06ZM369.805 25.06H377.525V27.08H369.805V25.06ZM372.365 22.34H374.965V35H372.365V22.34ZM382.157 20.7V22.98H379.137V20.7H382.157ZM379.337 25.06H381.937V35H379.337V25.06ZM384.528 25.06H387.128V35H384.528V25.06ZM391.748 24.84C392.361 24.84 392.928 24.92 393.448 25.08C393.968 25.24 394.421 25.4867 394.808 25.82C395.195 26.1533 395.495 26.58 395.708 27.1C395.921 27.6067 396.028 28.2133 396.028 28.92V35H393.428V29.38C393.428 28.54 393.221 27.9267 392.808 27.54C392.408 27.14 391.748 26.94 390.828 26.94C390.135 26.94 389.508 27.0733 388.948 27.34C388.388 27.6067 387.935 27.9467 387.588 28.36C387.241 28.76 387.041 29.18 386.988 29.62L386.968 28.6C387.035 28.1333 387.188 27.68 387.428 27.24C387.668 26.8 387.988 26.4 388.388 26.04C388.801 25.6667 389.288 25.3733 389.848 25.16C390.408 24.9467 391.041 24.84 391.748 24.84ZM397.995 31.7H400.395C400.542 32.1533 400.842 32.5267 401.295 32.82C401.762 33.1 402.369 33.24 403.115 33.24C403.622 33.24 404.015 33.1933 404.295 33.1C404.575 33.0067 404.769 32.8733 404.875 32.7C404.982 32.5133 405.035 32.3067 405.035 32.08C405.035 31.8 404.949 31.5867 404.775 31.44C404.602 31.28 404.335 31.1533 403.975 31.06C403.615 30.9667 403.155 30.88 402.595 30.8C402.035 30.7067 401.495 30.5933 400.975 30.46C400.455 30.3267 399.995 30.1533 399.595 29.94C399.195 29.7133 398.875 29.4333 398.635 29.1C398.409 28.7533 398.295 28.3333 398.295 27.84C398.295 27.36 398.409 26.9333 398.635 26.56C398.875 26.1867 399.202 25.8733 399.615 25.62C400.042 25.3667 400.535 25.1733 401.095 25.04C401.669 24.9067 402.282 24.84 402.935 24.84C403.922 24.84 404.742 24.9867 405.395 25.28C406.049 25.56 406.535 25.96 406.855 26.48C407.189 26.9867 407.355 27.5733 407.355 28.24H405.055C404.949 27.7467 404.735 27.3933 404.415 27.18C404.095 26.9533 403.602 26.84 402.935 26.84C402.282 26.84 401.789 26.94 401.455 27.14C401.122 27.34 400.955 27.6133 400.955 27.96C400.955 28.24 401.055 28.46 401.255 28.62C401.469 28.7667 401.775 28.8867 402.175 28.98C402.589 29.0733 403.102 29.1733 403.715 29.28C404.235 29.3867 404.729 29.5067 405.195 29.64C405.675 29.7733 406.102 29.9467 406.475 30.16C406.849 30.36 407.142 30.6333 407.355 30.98C407.582 31.3133 407.695 31.74 407.695 32.26C407.695 32.9 407.509 33.44 407.135 33.88C406.775 34.32 406.255 34.66 405.575 34.9C404.895 35.1267 404.082 35.24 403.135 35.24C402.295 35.24 401.569 35.1533 400.955 34.98C400.355 34.7933 399.855 34.56 399.455 34.28C399.055 33.9867 398.742 33.68 398.515 33.36C398.302 33.0267 398.155 32.7133 398.075 32.42C397.995 32.1267 397.969 31.8867 397.995 31.7Z" fill="black"/>
<path d="M439.562 22.5345C439.884 21.6639 441.116 21.6639 441.438 22.5345L442.501 25.408C442.602 25.6818 442.818 25.8976 443.092 25.9988L445.965 27.0621C446.836 27.3843 446.836 28.6157 445.965 28.9379L443.092 30.0012C442.818 30.1024 442.602 30.3182 442.501 30.592L441.438 33.4655C441.116 34.3361 439.884 34.3361 439.562 33.4655L438.499 30.592C438.398 30.3182 438.182 30.1024 437.908 30.0012L435.035 28.9379C434.164 28.6157 434.164 27.3843 435.035 27.0621L437.908 25.9988C438.182 25.8976 438.398 25.6818 438.499 25.408L439.562 22.5345Z" fill="black"/>
<path d="M476.34 30.8V28.68H482.26C482.967 28.68 483.527 28.4933 483.94 28.12C484.353 27.7333 484.56 27.2 484.56 26.52C484.56 25.8133 484.353 25.2733 483.94 24.9C483.527 24.5267 482.967 24.34 482.26 24.34H476.66V35H474V22.06H482.02C482.74 22.06 483.413 22.1467 484.04 22.32C484.68 22.4933 485.233 22.76 485.7 23.12C486.18 23.48 486.553 23.94 486.82 24.5C487.087 25.06 487.22 25.7333 487.22 26.52C487.22 27.2933 487.087 27.9533 486.82 28.5C486.553 29.0467 486.18 29.4933 485.7 29.84C485.233 30.1733 484.68 30.42 484.04 30.58C483.413 30.7267 482.74 30.8 482.02 30.8H476.34ZM493.892 35.22C492.905 35.22 492.005 35.0067 491.192 34.58C490.392 34.14 489.752 33.5333 489.272 32.76C488.805 31.9733 488.572 31.0667 488.572 30.04C488.572 28.9867 488.812 28.0733 489.292 27.3C489.772 26.5267 490.418 25.9267 491.232 25.5C492.058 25.06 492.992 24.84 494.032 24.84C495.178 24.84 496.098 25.0733 496.792 25.54C497.498 25.9933 498.012 26.6133 498.332 27.4C498.652 28.1867 498.812 29.0667 498.812 30.04C498.812 30.6267 498.718 31.2267 498.532 31.84C498.345 32.44 498.058 33 497.672 33.52C497.285 34.0267 496.778 34.44 496.152 34.76C495.525 35.0667 494.772 35.22 493.892 35.22ZM494.732 33.22C495.518 33.22 496.198 33.0867 496.772 32.82C497.345 32.5533 497.785 32.18 498.092 31.7C498.398 31.22 498.552 30.6667 498.552 30.04C498.552 29.36 498.392 28.7867 498.072 28.32C497.765 27.84 497.325 27.48 496.752 27.24C496.192 26.9867 495.518 26.86 494.732 26.86C493.625 26.86 492.765 27.1533 492.152 27.74C491.538 28.3133 491.232 29.08 491.232 30.04C491.232 30.68 491.378 31.24 491.672 31.72C491.965 32.1867 492.372 32.5533 492.892 32.82C493.425 33.0867 494.038 33.22 494.732 33.22ZM498.552 25.06H501.152V35H498.732C498.732 35 498.712 34.8733 498.672 34.62C498.645 34.3533 498.618 34.02 498.592 33.62C498.565 33.22 498.552 32.8267 498.552 32.44V25.06ZM502.805 25.06H510.525V27.08H502.805V25.06ZM505.365 22.34H507.965V35H505.365V22.34ZM515.157 20.7V22.98H512.137V20.7H515.157ZM512.337 25.06H514.937V35H512.337V25.06ZM517.528 25.06H520.128V35H517.528V25.06ZM524.748 24.84C525.361 24.84 525.928 24.92 526.448 25.08C526.968 25.24 527.421 25.4867 527.808 25.82C528.195 26.1533 528.495 26.58 528.708 27.1C528.921 27.6067 529.028 28.2133 529.028 28.92V35H526.428V29.38C526.428 28.54 526.221 27.9267 525.808 27.54C525.408 27.14 524.748 26.94 523.828 26.94C523.135 26.94 522.508 27.0733 521.948 27.34C521.388 27.6067 520.935 27.9467 520.588 28.36C520.241 28.76 520.041 29.18 519.988 29.62L519.968 28.6C520.035 28.1333 520.188 27.68 520.428 27.24C520.668 26.8 520.988 26.4 521.388 26.04C521.801 25.6667 522.288 25.3733 522.848 25.16C523.408 24.9467 524.041 24.84 524.748 24.84ZM530.995 31.7H533.395C533.542 32.1533 533.842 32.5267 534.295 32.82C534.762 33.1 535.369 33.24 536.115 33.24C536.622 33.24 537.015 33.1933 537.295 33.1C537.575 33.0067 537.769 32.8733 537.875 32.7C537.982 32.5133 538.035 32.3067 538.035 32.08C538.035 31.8 537.949 31.5867 537.775 31.44C537.602 31.28 537.335 31.1533 536.975 31.06C536.615 30.9667 536.155 30.88 535.595 30.8C535.035 30.7067 534.495 30.5933 533.975 30.46C533.455 30.3267 532.995 30.1533 532.595 29.94C532.195 29.7133 531.875 29.4333 531.635 29.1C531.409 28.7533 531.295 28.3333 531.295 27.84C531.295 27.36 531.409 26.9333 531.635 26.56C531.875 26.1867 532.202 25.8733 532.615 25.62C533.042 25.3667 533.535 25.1733 534.095 25.04C534.669 24.9067 535.282 24.84 535.935 24.84C536.922 24.84 537.742 24.9867 538.395 25.28C539.049 25.56 539.535 25.96 539.855 26.48C540.189 26.9867 540.355 27.5733 540.355 28.24H538.055C537.949 27.7467 537.735 27.3933 537.415 27.18C537.095 26.9533 536.602 26.84 535.935 26.84C535.282 26.84 534.789 26.94 534.455 27.14C534.122 27.34 533.955 27.6133 533.955 27.96C533.955 28.24 534.055 28.46 534.255 28.62C534.469 28.7667 534.775 28.8867 535.175 28.98C535.589 29.0733 536.102 29.1733 536.715 29.28C537.235 29.3867 537.729 29.5067 538.195 29.64C538.675 29.7733 539.102 29.9467 539.475 30.16C539.849 30.36 540.142 30.6333 540.355 30.98C540.582 31.3133 540.695 31.74 540.695 32.26C540.695 32.9 540.509 33.44 540.135 33.88C539.775 34.32 539.255 34.66 538.575 34.9C537.895 35.1267 537.082 35.24 536.135 35.24C535.295 35.24 534.569 35.1533 533.955 34.98C533.355 34.7933 532.855 34.56 532.455 34.28C532.055 33.9867 531.742 33.68 531.515 33.36C531.302 33.0267 531.155 32.7133 531.075 32.42C530.995 32.1267 530.969 31.8867 530.995 31.7Z" fill="black"/>
<path d="M572.562 22.5345C572.884 21.6639 574.116 21.6639 574.438 22.5345L575.501 25.408C575.602 25.6818 575.818 25.8976 576.092 25.9988L578.965 27.0621C579.836 27.3843 579.836 28.6157 578.965 28.9379L576.092 30.0012C575.818 30.1024 575.602 30.3182 575.501 30.592L574.438 33.4655C574.116 34.3361 572.884 34.3361 572.562 33.4655L571.499 30.592C571.398 30.3182 571.182 30.1024 570.908 30.0012L568.035 28.9379C567.164 28.6157 567.164 27.3843 568.035 27.0621L570.908 25.9988C571.182 25.8976 571.398 25.6818 571.499 25.408L572.562 22.5345Z" fill="black"/>
<path d="M609.34 30.8V28.68H615.26C615.967 28.68 616.527 28.4933 616.94 28.12C617.353 27.7333 617.56 27.2 617.56 26.52C617.56 25.8133 617.353 25.2733 616.94 24.9C616.527 24.5267 615.967 24.34 615.26 24.34H609.66V35H607V22.06H615.02C615.74 22.06 616.413 22.1467 617.04 22.32C617.68 22.4933 618.233 22.76 618.7 23.12C619.18 23.48 619.553 23.94 619.82 24.5C620.087 25.06 620.22 25.7333 620.22 26.52C620.22 27.2933 620.087 27.9533 619.82 28.5C619.553 29.0467 619.18 29.4933 618.7 29.84C618.233 30.1733 617.68 30.42 617.04 30.58C616.413 30.7267 615.74 30.8 615.02 30.8H609.34ZM626.892 35.22C625.905 35.22 625.005 35.0067 624.192 34.58C623.392 34.14 622.752 33.5333 622.272 32.76C621.805 31.9733 621.572 31.0667 621.572 30.04C621.572 28.9867 621.812 28.0733 622.292 27.3C622.772 26.5267 623.418 25.9267 624.232 25.5C625.058 25.06 625.992 24.84 627.032 24.84C628.178 24.84 629.098 25.0733 629.792 25.54C630.498 25.9933 631.012 26.6133 631.332 27.4C631.652 28.1867 631.812 29.0667 631.812 30.04C631.812 30.6267 631.718 31.2267 631.532 31.84C631.345 32.44 631.058 33 630.672 33.52C630.285 34.0267 629.778 34.44 629.152 34.76C628.525 35.0667 627.772 35.22 626.892 35.22ZM627.732 33.22C628.518 33.22 629.198 33.0867 629.772 32.82C630.345 32.5533 630.785 32.18 631.092 31.7C631.398 31.22 631.552 30.6667 631.552 30.04C631.552 29.36 631.392 28.7867 631.072 28.32C630.765 27.84 630.325 27.48 629.752 27.24C629.192 26.9867 628.518 26.86 627.732 26.86C626.625 26.86 625.765 27.1533 625.152 27.74C624.538 28.3133 624.232 29.08 624.232 30.04C624.232 30.68 624.378 31.24 624.672 31.72C624.965 32.1867 625.372 32.5533 625.892 32.82C626.425 33.0867 627.038 33.22 627.732 33.22ZM631.552 25.06H634.152V35H631.732C631.732 35 631.712 34.8733 631.672 34.62C631.645 34.3533 631.618 34.02 631.592 33.62C631.565 33.22 631.552 32.8267 631.552 32.44V25.06ZM635.805 25.06H643.525V27.08H635.805V25.06ZM638.365 22.34H640.965V35H638.365V22.34ZM648.157 20.7V22.98H645.137V20.7H648.157ZM645.337 25.06H647.937V35H645.337V25.06ZM650.528 25.06H653.128V35H650.528V25.06ZM657.748 24.84C658.361 24.84 658.928 24.92 659.448 25.08C659.968 25.24 660.421 25.4867 660.808 25.82C661.195 26.1533 661.495 26.58 661.708 27.1C661.921 27.6067 662.028 28.2133 662.028 28.92V35H659.428V29.38C659.428 28.54 659.221 27.9267 658.808 27.54C658.408 27.14 657.748 26.94 656.828 26.94C656.135 26.94 655.508 27.0733 654.948 27.34C654.388 27.6067 653.935 27.9467 653.588 28.36C653.241 28.76 653.041 29.18 652.988 29.62L652.968 28.6C653.035 28.1333 653.188 27.68 653.428 27.24C653.668 26.8 653.988 26.4 654.388 26.04C654.801 25.6667 655.288 25.3733 655.848 25.16C656.408 24.9467 657.041 24.84 657.748 24.84ZM663.995 31.7H666.395C666.542 32.1533 666.842 32.5267 667.295 32.82C667.762 33.1 668.369 33.24 669.115 33.24C669.622 33.24 670.015 33.1933 670.295 33.1C670.575 33.0067 670.769 32.8733 670.875 32.7C670.982 32.5133 671.035 32.3067 671.035 32.08C671.035 31.8 670.949 31.5867 670.775 31.44C670.602 31.28 670.335 31.1533 669.975 31.06C669.615 30.9667 669.155 30.88 668.595 30.8C668.035 30.7067 667.495 30.5933 666.975 30.46C666.455 30.3267 665.995 30.1533 665.595 29.94C665.195 29.7133 664.875 29.4333 664.635 29.1C664.409 28.7533 664.295 28.3333 664.295 27.84C664.295 27.36 664.409 26.9333 664.635 26.56C664.875 26.1867 665.202 25.8733 665.615 25.62C666.042 25.3667 666.535 25.1733 667.095 25.04C667.669 24.9067 668.282 24.84 668.935 24.84C669.922 24.84 670.742 24.9867 671.395 25.28C672.049 25.56 672.535 25.96 672.855 26.48C673.189 26.9867 673.355 27.5733 673.355 28.24H671.055C670.949 27.7467 670.735 27.3933 670.415 27.18C670.095 26.9533 669.602 26.84 668.935 26.84C668.282 26.84 667.789 26.94 667.455 27.14C667.122 27.34 666.955 27.6133 666.955 27.96C666.955 28.24 667.055 28.46 667.255 28.62C667.469 28.7667 667.775 28.8867 668.175 28.98C668.589 29.0733 669.102 29.1733 669.715 29.28C670.235 29.3867 670.729 29.5067 671.195 29.64C671.675 29.7733 672.102 29.9467 672.475 30.16C672.849 30.36 673.142 30.6333 673.355 30.98C673.582 31.3133 673.695 31.74 673.695 32.26C673.695 32.9 673.509 33.44 673.135 33.88C672.775 34.32 672.255 34.66 671.575 34.9C670.895 35.1267 670.082 35.24 669.135 35.24C668.295 35.24 667.569 35.1533 666.955 34.98C666.355 34.7933 665.855 34.56 665.455 34.28C665.055 33.9867 664.742 33.68 664.515 33.36C664.302 33.0267 664.155 32.7133 664.075 32.42C663.995 32.1267 663.969 31.8867 663.995 31.7Z" fill="black"/>
<path d="M705.562 22.5345C705.884 21.6639 707.116 21.6639 707.438 22.5345L708.501 25.408C708.602 25.6818 708.818 25.8976 709.092 25.9988L711.965 27.0621C712.836 27.3843 712.836 28.6157 711.965 28.9379L709.092 30.0012C708.818 30.1024 708.602 30.3182 708.501 30.592L707.438 33.4655C707.116 34.3361 705.884 34.3361 705.562 33.4655L704.499 30.592C704.398 30.3182 704.182 30.1024 703.908 30.0012L701.035 28.9379C700.164 28.6157 700.164 27.3843 701.035 27.0621L703.908 25.9988C704.182 25.8976 704.398 25.6818 704.499 25.408L705.562 22.5345Z" fill="black"/>
<path d="M742.34 30.8V28.68H748.26C748.967 28.68 749.527 28.4933 749.94 28.12C750.353 27.7333 750.56 27.2 750.56 26.52C750.56 25.8133 750.353 25.2733 749.94 24.9C749.527 24.5267 748.967 24.34 748.26 24.34H742.66V35H740V22.06H748.02C748.74 22.06 749.413 22.1467 750.04 22.32C750.68 22.4933 751.233 22.76 751.7 23.12C752.18 23.48 752.553 23.94 752.82 24.5C753.087 25.06 753.22 25.7333 753.22 26.52C753.22 27.2933 753.087 27.9533 752.82 28.5C752.553 29.0467 752.18 29.4933 751.7 29.84C751.233 30.1733 750.68 30.42 750.04 30.58C749.413 30.7267 748.74 30.8 748.02 30.8H742.34ZM759.892 35.22C758.905 35.22 758.005 35.0067 757.192 34.58C756.392 34.14 755.752 33.5333 755.272 32.76C754.805 31.9733 754.572 31.0667 754.572 30.04C754.572 28.9867 754.812 28.0733 755.292 27.3C755.772 26.5267 756.418 25.9267 757.232 25.5C758.058 25.06 758.992 24.84 760.032 24.84C761.178 24.84 762.098 25.0733 762.792 25.54C763.498 25.9933 764.012 26.6133 764.332 27.4C764.652 28.1867 764.812 29.0667 764.812 30.04C764.812 30.6267 764.718 31.2267 764.532 31.84C764.345 32.44 764.058 33 763.672 33.52C763.285 34.0267 762.778 34.44 762.152 34.76C761.525 35.0667 760.772 35.22 759.892 35.22ZM760.732 33.22C761.518 33.22 762.198 33.0867 762.772 32.82C763.345 32.5533 763.785 32.18 764.092 31.7C764.398 31.22 764.552 30.6667 764.552 30.04C764.552 29.36 764.392 28.7867 764.072 28.32C763.765 27.84 763.325 27.48 762.752 27.24C762.192 26.9867 761.518 26.86 760.732 26.86C759.625 26.86 758.765 27.1533 758.152 27.74C757.538 28.3133 757.232 29.08 757.232 30.04C757.232 30.68 757.378 31.24 757.672 31.72C757.965 32.1867 758.372 32.5533 758.892 32.82C759.425 33.0867 760.038 33.22 760.732 33.22ZM764.552 25.06H767.152V35H764.732C764.732 35 764.712 34.8733 764.672 34.62C764.645 34.3533 764.618 34.02 764.592 33.62C764.565 33.22 764.552 32.8267 764.552 32.44V25.06ZM768.805 25.06H776.525V27.08H768.805V25.06ZM771.365 22.34H773.965V35H771.365V22.34ZM781.157 20.7V22.98H778.137V20.7H781.157ZM778.337 25.06H780.937V35H778.337V25.06ZM783.528 25.06H786.128V35H783.528V25.06ZM790.748 24.84C791.361 24.84 791.928 24.92 792.448 25.08C792.968 25.24 793.421 25.4867 793.808 25.82C794.195 26.1533 794.495 26.58 794.708 27.1C794.921 27.6067 795.028 28.2133 795.028 28.92V35H792.428V29.38C792.428 28.54 792.221 27.9267 791.808 27.54C791.408 27.14 790.748 26.94 789.828 26.94C789.135 26.94 788.508 27.0733 787.948 27.34C787.388 27.6067 786.935 27.9467 786.588 28.36C786.241 28.76 786.041 29.18 785.988 29.62L785.968 28.6C786.035 28.1333 786.188 27.68 786.428 27.24C786.668 26.8 786.988 26.4 787.388 26.04C787.801 25.6667 788.288 25.3733 788.848 25.16C789.408 24.9467 790.041 24.84 790.748 24.84ZM796.995 31.7H799.395C799.542 32.1533 799.842 32.5267 800.295 32.82C800.762 33.1 801.369 33.24 802.115 33.24C802.622 33.24 803.015 33.1933 803.295 33.1C803.575 33.0067 803.769 32.8733 803.875 32.7C803.982 32.5133 804.035 32.3067 804.035 32.08C804.035 31.8 803.949 31.5867 803.775 31.44C803.602 31.28 803.335 31.1533 802.975 31.06C802.615 30.9667 802.155 30.88 801.595 30.8C801.035 30.7067 800.495 30.5933 799.975 30.46C799.455 30.3267 798.995 30.1533 798.595 29.94C798.195 29.7133 797.875 29.4333 797.635 29.1C797.409 28.7533 797.295 28.3333 797.295 27.84C797.295 27.36 797.409 26.9333 797.635 26.56C797.875 26.1867 798.202 25.8733 798.615 25.62C799.042 25.3667 799.535 25.1733 800.095 25.04C800.669 24.9067 801.282 24.84 801.935 24.84C802.922 24.84 803.742 24.9867 804.395 25.28C805.049 25.56 805.535 25.96 805.855 26.48C806.189 26.9867 806.355 27.5733 806.355 28.24H804.055C803.949 27.7467 803.735 27.3933 803.415 27.18C803.095 26.9533 802.602 26.84 801.935 26.84C801.282 26.84 800.789 26.94 800.455 27.14C800.122 27.34 799.955 27.6133 799.955 27.96C799.955 28.24 800.055 28.46 800.255 28.62C800.469 28.7667 800.775 28.8867 801.175 28.98C801.589 29.0733 802.102 29.1733 802.715 29.28C803.235 29.3867 803.729 29.5067 804.195 29.64C804.675 29.7733 805.102 29.9467 805.475 30.16C805.849 30.36 806.142 30.6333 806.355 30.98C806.582 31.3133 806.695 31.74 806.695 32.26C806.695 32.9 806.509 33.44 806.135 33.88C805.775 34.32 805.255 34.66 804.575 34.9C803.895 35.1267 803.082 35.24 802.135 35.24C801.295 35.24 800.569 35.1533 799.955 34.98C799.355 34.7933 798.855 34.56 798.455 34.28C798.055 33.9867 797.742 33.68 797.515 33.36C797.302 33.0267 797.155 32.7133 797.075 32.42C796.995 32.1267 796.969 31.8867 796.995 31.7Z" fill="black"/>
<path d="M838.562 22.5345C838.884 21.6639 840.116 21.6639 840.438 22.5345L841.501 25.408C841.602 25.6818 841.818 25.8976 842.092 25.9988L844.965 27.0621C845.836 27.3843 845.836 28.6157 844.965 28.9379L842.092 30.0012C841.818 30.1024 841.602 30.3182 841.501 30.592L840.438 33.4655C840.116 34.3361 838.884 34.3361 838.562 33.4655L837.499 30.592C837.398 30.3182 837.182 30.1024 836.908 30.0012L834.035 28.9379C833.164 28.6157 833.164 27.3843 834.035 27.0621L836.908 25.9988C837.182 25.8976 837.398 25.6818 837.499 25.408L838.562 22.5345Z" fill="black"/>
<path d="M875.34 30.8V28.68H881.26C881.967 28.68 882.527 28.4933 882.94 28.12C883.353 27.7333 883.56 27.2 883.56 26.52C883.56 25.8133 883.353 25.2733 882.94 24.9C882.527 24.5267 881.967 24.34 881.26 24.34H875.66V35H873V22.06H881.02C881.74 22.06 882.413 22.1467 883.04 22.32C883.68 22.4933 884.233 22.76 884.7 23.12C885.18 23.48 885.553 23.94 885.82 24.5C886.087 25.06 886.22 25.7333 886.22 26.52C886.22 27.2933 886.087 27.9533 885.82 28.5C885.553 29.0467 885.18 29.4933 884.7 29.84C884.233 30.1733 883.68 30.42 883.04 30.58C882.413 30.7267 881.74 30.8 881.02 30.8H875.34ZM892.892 35.22C891.905 35.22 891.005 35.0067 890.192 34.58C889.392 34.14 888.752 33.5333 888.272 32.76C887.805 31.9733 887.572 31.0667 887.572 30.04C887.572 28.9867 887.812 28.0733 888.292 27.3C888.772 26.5267 889.418 25.9267 890.232 25.5C891.058 25.06 891.992 24.84 893.032 24.84C894.178 24.84 895.098 25.0733 895.792 25.54C896.498 25.9933 897.012 26.6133 897.332 27.4C897.652 28.1867 897.812 29.0667 897.812 30.04C897.812 30.6267 897.718 31.2267 897.532 31.84C897.345 32.44 897.058 33 896.672 33.52C896.285 34.0267 895.778 34.44 895.152 34.76C894.525 35.0667 893.772 35.22 892.892 35.22ZM893.732 33.22C894.518 33.22 895.198 33.0867 895.772 32.82C896.345 32.5533 896.785 32.18 897.092 31.7C897.398 31.22 897.552 30.6667 897.552 30.04C897.552 29.36 897.392 28.7867 897.072 28.32C896.765 27.84 896.325 27.48 895.752 27.24C895.192 26.9867 894.518 26.86 893.732 26.86C892.625 26.86 891.765 27.1533 891.152 27.74C890.538 28.3133 890.232 29.08 890.232 30.04C890.232 30.68 890.378 31.24 890.672 31.72C890.965 32.1867 891.372 32.5533 891.892 32.82C892.425 33.0867 893.038 33.22 893.732 33.22ZM897.552 25.06H900.152V35H897.732C897.732 35 897.712 34.8733 897.672 34.62C897.645 34.3533 897.618 34.02 897.592 33.62C897.565 33.22 897.552 32.8267 897.552 32.44V25.06ZM901.805 25.06H909.525V27.08H901.805V25.06ZM904.365 22.34H906.965V35H904.365V22.34ZM914.157 20.7V22.98H911.137V20.7H914.157ZM911.337 25.06H913.937V35H911.337V25.06ZM916.528 25.06H919.128V35H916.528V25.06ZM923.748 24.84C924.361 24.84 924.928 24.92 925.448 25.08C925.968 25.24 926.421 25.4867 926.808 25.82C927.195 26.1533 927.495 26.58 927.708 27.1C927.921 27.6067 928.028 28.2133 928.028 28.92V35H925.428V29.38C925.428 28.54 925.221 27.9267 924.808 27.54C924.408 27.14 923.748 26.94 922.828 26.94C922.135 26.94 921.508 27.0733 920.948 27.34C920.388 27.6067 919.935 27.9467 919.588 28.36C919.241 28.76 919.041 29.18 918.988 29.62L918.968 28.6C919.035 28.1333 919.188 27.68 919.428 27.24C919.668 26.8 919.988 26.4 920.388 26.04C920.801 25.6667 921.288 25.3733 921.848 25.16C922.408 24.9467 923.041 24.84 923.748 24.84ZM929.995 31.7H932.395C932.542 32.1533 932.842 32.5267 933.295 32.82C933.762 33.1 934.369 33.24 935.115 33.24C935.622 33.24 936.015 33.1933 936.295 33.1C936.575 33.0067 936.769 32.8733 936.875 32.7C936.982 32.5133 937.035 32.3067 937.035 32.08C937.035 31.8 936.949 31.5867 936.775 31.44C936.602 31.28 936.335 31.1533 935.975 31.06C935.615 30.9667 935.155 30.88 934.595 30.8C934.035 30.7067 933.495 30.5933 932.975 30.46C932.455 30.3267 931.995 30.1533 931.595 29.94C931.195 29.7133 930.875 29.4333 930.635 29.1C930.409 28.7533 930.295 28.3333 930.295 27.84C930.295 27.36 930.409 26.9333 930.635 26.56C930.875 26.1867 931.202 25.8733 931.615 25.62C932.042 25.3667 932.535 25.1733 933.095 25.04C933.669 24.9067 934.282 24.84 934.935 24.84C935.922 24.84 936.742 24.9867 937.395 25.28C938.049 25.56 938.535 25.96 938.855 26.48C939.189 26.9867 939.355 27.5733 939.355 28.24H937.055C936.949 27.7467 936.735 27.3933 936.415 27.18C936.095 26.9533 935.602 26.84 934.935 26.84C934.282 26.84 933.789 26.94 933.455 27.14C933.122 27.34 932.955 27.6133 932.955 27.96C932.955 28.24 933.055 28.46 933.255 28.62C933.469 28.7667 933.775 28.8867 934.175 28.98C934.589 29.0733 935.102 29.1733 935.715 29.28C936.235 29.3867 936.729 29.5067 937.195 29.64C937.675 29.7733 938.102 29.9467 938.475 30.16C938.849 30.36 939.142 30.6333 939.355 30.98C939.582 31.3133 939.695 31.74 939.695 32.26C939.695 32.9 939.509 33.44 939.135 33.88C938.775 34.32 938.255 34.66 937.575 34.9C936.895 35.1267 936.082 35.24 935.135 35.24C934.295 35.24 933.569 35.1533 932.955 34.98C932.355 34.7933 931.855 34.56 931.455 34.28C931.055 33.9867 930.742 33.68 930.515 33.36C930.302 33.0267 930.155 32.7133 930.075 32.42C929.995 32.1267 929.969 31.8867 929.995 31.7Z" fill="black"/>
<path d="M971.562 22.5345C971.884 21.6639 973.116 21.6639 973.438 22.5345L974.501 25.408C974.602 25.6818 974.818 25.8976 975.092 25.9988L977.965 27.0621C978.836 27.3843 978.836 28.6157 977.965 28.9379L975.092 30.0012C974.818 30.1024 974.602 30.3182 974.501 30.592L973.438 33.4655C973.116 34.3361 971.884 34.3361 971.562 33.4655L970.499 30.592C970.398 30.3182 970.182 30.1024 969.908 30.0012L967.035 28.9379C966.164 28.6157 966.164 27.3843 967.035 27.0621L969.908 25.9988C970.182 25.8976 970.398 25.6818 970.499 25.408L971.562 22.5345Z" fill="black"/>
<path d="M1008.34 30.8V28.68H1014.26C1014.97 28.68 1015.53 28.4933 1015.94 28.12C1016.35 27.7333 1016.56 27.2 1016.56 26.52C1016.56 25.8133 1016.35 25.2733 1015.94 24.9C1015.53 24.5267 1014.97 24.34 1014.26 24.34H1008.66V35H1006V22.06H1014.02C1014.74 22.06 1015.41 22.1467 1016.04 22.32C1016.68 22.4933 1017.23 22.76 1017.7 23.12C1018.18 23.48 1018.55 23.94 1018.82 24.5C1019.09 25.06 1019.22 25.7333 1019.22 26.52C1019.22 27.2933 1019.09 27.9533 1018.82 28.5C1018.55 29.0467 1018.18 29.4933 1017.7 29.84C1017.23 30.1733 1016.68 30.42 1016.04 30.58C1015.41 30.7267 1014.74 30.8 1014.02 30.8H1008.34ZM1025.89 35.22C1024.9 35.22 1024 35.0067 1023.19 34.58C1022.39 34.14 1021.75 33.5333 1021.27 32.76C1020.8 31.9733 1020.57 31.0667 1020.57 30.04C1020.57 28.9867 1020.81 28.0733 1021.29 27.3C1021.77 26.5267 1022.42 25.9267 1023.23 25.5C1024.06 25.06 1024.99 24.84 1026.03 24.84C1027.18 24.84 1028.1 25.0733 1028.79 25.54C1029.5 25.9933 1030.01 26.6133 1030.33 27.4C1030.65 28.1867 1030.81 29.0667 1030.81 30.04C1030.81 30.6267 1030.72 31.2267 1030.53 31.84C1030.34 32.44 1030.06 33 1029.67 33.52C1029.28 34.0267 1028.78 34.44 1028.15 34.76C1027.52 35.0667 1026.77 35.22 1025.89 35.22ZM1026.73 33.22C1027.52 33.22 1028.2 33.0867 1028.77 32.82C1029.34 32.5533 1029.78 32.18 1030.09 31.7C1030.4 31.22 1030.55 30.6667 1030.55 30.04C1030.55 29.36 1030.39 28.7867 1030.07 28.32C1029.76 27.84 1029.32 27.48 1028.75 27.24C1028.19 26.9867 1027.52 26.86 1026.73 26.86C1025.62 26.86 1024.76 27.1533 1024.15 27.74C1023.54 28.3133 1023.23 29.08 1023.23 30.04C1023.23 30.68 1023.38 31.24 1023.67 31.72C1023.96 32.1867 1024.37 32.5533 1024.89 32.82C1025.42 33.0867 1026.04 33.22 1026.73 33.22ZM1030.55 25.06H1033.15V35H1030.73C1030.73 35 1030.71 34.8733 1030.67 34.62C1030.64 34.3533 1030.62 34.02 1030.59 33.62C1030.56 33.22 1030.55 32.8267 1030.55 32.44V25.06ZM1034.8 25.06H1042.52V27.08H1034.8V25.06ZM1037.36 22.34H1039.96V35H1037.36V22.34ZM1047.16 20.7V22.98H1044.14V20.7H1047.16ZM1044.34 25.06H1046.94V35H1044.34V25.06ZM1049.53 25.06H1052.13V35H1049.53V25.06ZM1056.75 24.84C1057.36 24.84 1057.93 24.92 1058.45 25.08C1058.97 25.24 1059.42 25.4867 1059.81 25.82C1060.19 26.1533 1060.49 26.58 1060.71 27.1C1060.92 27.6067 1061.03 28.2133 1061.03 28.92V35H1058.43V29.38C1058.43 28.54 1058.22 27.9267 1057.81 27.54C1057.41 27.14 1056.75 26.94 1055.83 26.94C1055.13 26.94 1054.51 27.0733 1053.95 27.34C1053.39 27.6067 1052.93 27.9467 1052.59 28.36C1052.24 28.76 1052.04 29.18 1051.99 29.62L1051.97 28.6C1052.03 28.1333 1052.19 27.68 1052.43 27.24C1052.67 26.8 1052.99 26.4 1053.39 26.04C1053.8 25.6667 1054.29 25.3733 1054.85 25.16C1055.41 24.9467 1056.04 24.84 1056.75 24.84ZM1063 31.7H1065.4C1065.54 32.1533 1065.84 32.5267 1066.3 32.82C1066.76 33.1 1067.37 33.24 1068.12 33.24C1068.62 33.24 1069.02 33.1933 1069.3 33.1C1069.58 33.0067 1069.77 32.8733 1069.88 32.7C1069.98 32.5133 1070.04 32.3067 1070.04 32.08C1070.04 31.8 1069.95 31.5867 1069.78 31.44C1069.6 31.28 1069.34 31.1533 1068.98 31.06C1068.62 30.9667 1068.16 30.88 1067.6 30.8C1067.04 30.7067 1066.5 30.5933 1065.98 30.46C1065.46 30.3267 1065 30.1533 1064.6 29.94C1064.2 29.7133 1063.88 29.4333 1063.64 29.1C1063.41 28.7533 1063.3 28.3333 1063.3 27.84C1063.3 27.36 1063.41 26.9333 1063.64 26.56C1063.88 26.1867 1064.2 25.8733 1064.62 25.62C1065.04 25.3667 1065.54 25.1733 1066.1 25.04C1066.67 24.9067 1067.28 24.84 1067.94 24.84C1068.92 24.84 1069.74 24.9867 1070.4 25.28C1071.05 25.56 1071.54 25.96 1071.86 26.48C1072.19 26.9867 1072.36 27.5733 1072.36 28.24H1070.06C1069.95 27.7467 1069.74 27.3933 1069.42 27.18C1069.1 26.9533 1068.6 26.84 1067.94 26.84C1067.28 26.84 1066.79 26.94 1066.46 27.14C1066.12 27.34 1065.96 27.6133 1065.96 27.96C1065.96 28.24 1066.06 28.46 1066.26 28.62C1066.47 28.7667 1066.78 28.8867 1067.18 28.98C1067.59 29.0733 1068.1 29.1733 1068.72 29.28C1069.24 29.3867 1069.73 29.5067 1070.2 29.64C1070.68 29.7733 1071.1 29.9467 1071.48 30.16C1071.85 30.36 1072.14 30.6333 1072.36 30.98C1072.58 31.3133 1072.7 31.74 1072.7 32.26C1072.7 32.9 1072.51 33.44 1072.14 33.88C1071.78 34.32 1071.26 34.66 1070.58 34.9C1069.9 35.1267 1069.08 35.24 1068.14 35.24C1067.3 35.24 1066.57 35.1533 1065.96 34.98C1065.36 34.7933 1064.86 34.56 1064.46 34.28C1064.06 33.9867 1063.74 33.68 1063.52 33.36C1063.3 33.0267 1063.16 32.7133 1063.08 32.42C1063 32.1267 1062.97 31.8867 1063 31.7Z" fill="black"/>
<path d="M1104.56 22.5345C1104.88 21.6639 1106.12 21.6639 1106.44 22.5345L1107.5 25.408C1107.6 25.6818 1107.82 25.8976 1108.09 25.9988L1110.97 27.0621C1111.84 27.3843 1111.84 28.6157 1110.97 28.9379L1108.09 30.0012C1107.82 30.1024 1107.6 30.3182 1107.5 30.592L1106.44 33.4655C1106.12 34.3361 1104.88 34.3361 1104.56 33.4655L1103.5 30.592C1103.4 30.3182 1103.18 30.1024 1102.91 30.0012L1100.03 28.9379C1099.16 28.6157 1099.16 27.3843 1100.03 27.0621L1102.91 25.9988C1103.18 25.8976 1103.4 25.6818 1103.5 25.408L1104.56 22.5345Z" fill="black"/>
<path d="M1141.34 30.8V28.68H1147.26C1147.97 28.68 1148.53 28.4933 1148.94 28.12C1149.35 27.7333 1149.56 27.2 1149.56 26.52C1149.56 25.8133 1149.35 25.2733 1148.94 24.9C1148.53 24.5267 1147.97 24.34 1147.26 24.34H1141.66V35H1139V22.06H1147.02C1147.74 22.06 1148.41 22.1467 1149.04 22.32C1149.68 22.4933 1150.23 22.76 1150.7 23.12C1151.18 23.48 1151.55 23.94 1151.82 24.5C1152.09 25.06 1152.22 25.7333 1152.22 26.52C1152.22 27.2933 1152.09 27.9533 1151.82 28.5C1151.55 29.0467 1151.18 29.4933 1150.7 29.84C1150.23 30.1733 1149.68 30.42 1149.04 30.58C1148.41 30.7267 1147.74 30.8 1147.02 30.8H1141.34ZM1158.89 35.22C1157.9 35.22 1157 35.0067 1156.19 34.58C1155.39 34.14 1154.75 33.5333 1154.27 32.76C1153.8 31.9733 1153.57 31.0667 1153.57 30.04C1153.57 28.9867 1153.81 28.0733 1154.29 27.3C1154.77 26.5267 1155.42 25.9267 1156.23 25.5C1157.06 25.06 1157.99 24.84 1159.03 24.84C1160.18 24.84 1161.1 25.0733 1161.79 25.54C1162.5 25.9933 1163.01 26.6133 1163.33 27.4C1163.65 28.1867 1163.81 29.0667 1163.81 30.04C1163.81 30.6267 1163.72 31.2267 1163.53 31.84C1163.34 32.44 1163.06 33 1162.67 33.52C1162.28 34.0267 1161.78 34.44 1161.15 34.76C1160.52 35.0667 1159.77 35.22 1158.89 35.22ZM1159.73 33.22C1160.52 33.22 1161.2 33.0867 1161.77 32.82C1162.34 32.5533 1162.78 32.18 1163.09 31.7C1163.4 31.22 1163.55 30.6667 1163.55 30.04C1163.55 29.36 1163.39 28.7867 1163.07 28.32C1162.76 27.84 1162.32 27.48 1161.75 27.24C1161.19 26.9867 1160.52 26.86 1159.73 26.86C1158.62 26.86 1157.76 27.1533 1157.15 27.74C1156.54 28.3133 1156.23 29.08 1156.23 30.04C1156.23 30.68 1156.38 31.24 1156.67 31.72C1156.96 32.1867 1157.37 32.5533 1157.89 32.82C1158.42 33.0867 1159.04 33.22 1159.73 33.22ZM1163.55 25.06H1166.15V35H1163.73C1163.73 35 1163.71 34.8733 1163.67 34.62C1163.64 34.3533 1163.62 34.02 1163.59 33.62C1163.56 33.22 1163.55 32.8267 1163.55 32.44V25.06ZM1167.8 25.06H1175.52V27.08H1167.8V25.06ZM1170.36 22.34H1172.96V35H1170.36V22.34ZM1180.16 20.7V22.98H1177.14V20.7H1180.16ZM1177.34 25.06H1179.94V35H1177.34V25.06ZM1182.53 25.06H1185.13V35H1182.53V25.06ZM1189.75 24.84C1190.36 24.84 1190.93 24.92 1191.45 25.08C1191.97 25.24 1192.42 25.4867 1192.81 25.82C1193.19 26.1533 1193.49 26.58 1193.71 27.1C1193.92 27.6067 1194.03 28.2133 1194.03 28.92V35H1191.43V29.38C1191.43 28.54 1191.22 27.9267 1190.81 27.54C1190.41 27.14 1189.75 26.94 1188.83 26.94C1188.13 26.94 1187.51 27.0733 1186.95 27.34C1186.39 27.6067 1185.93 27.9467 1185.59 28.36C1185.24 28.76 1185.04 29.18 1184.99 29.62L1184.97 28.6C1185.03 28.1333 1185.19 27.68 1185.43 27.24C1185.67 26.8 1185.99 26.4 1186.39 26.04C1186.8 25.6667 1187.29 25.3733 1187.85 25.16C1188.41 24.9467 1189.04 24.84 1189.75 24.84ZM1196 31.7H1198.4C1198.54 32.1533 1198.84 32.5267 1199.3 32.82C1199.76 33.1 1200.37 33.24 1201.12 33.24C1201.62 33.24 1202.02 33.1933 1202.3 33.1C1202.58 33.0067 1202.77 32.8733 1202.88 32.7C1202.98 32.5133 1203.04 32.3067 1203.04 32.08C1203.04 31.8 1202.95 31.5867 1202.78 31.44C1202.6 31.28 1202.34 31.1533 1201.98 31.06C1201.62 30.9667 1201.16 30.88 1200.6 30.8C1200.04 30.7067 1199.5 30.5933 1198.98 30.46C1198.46 30.3267 1198 30.1533 1197.6 29.94C1197.2 29.7133 1196.88 29.4333 1196.64 29.1C1196.41 28.7533 1196.3 28.3333 1196.3 27.84C1196.3 27.36 1196.41 26.9333 1196.64 26.56C1196.88 26.1867 1197.2 25.8733 1197.62 25.62C1198.04 25.3667 1198.54 25.1733 1199.1 25.04C1199.67 24.9067 1200.28 24.84 1200.94 24.84C1201.92 24.84 1202.74 24.9867 1203.4 25.28C1204.05 25.56 1204.54 25.96 1204.86 26.48C1205.19 26.9867 1205.36 27.5733 1205.36 28.24H1203.06C1202.95 27.7467 1202.74 27.3933 1202.42 27.18C1202.1 26.9533 1201.6 26.84 1200.94 26.84C1200.28 26.84 1199.79 26.94 1199.46 27.14C1199.12 27.34 1198.96 27.6133 1198.96 27.96C1198.96 28.24 1199.06 28.46 1199.26 28.62C1199.47 28.7667 1199.78 28.8867 1200.18 28.98C1200.59 29.0733 1201.1 29.1733 1201.72 29.28C1202.24 29.3867 1202.73 29.5067 1203.2 29.64C1203.68 29.7733 1204.1 29.9467 1204.48 30.16C1204.85 30.36 1205.14 30.6333 1205.36 30.98C1205.58 31.3133 1205.7 31.74 1205.7 32.26C1205.7 32.9 1205.51 33.44 1205.14 33.88C1204.78 34.32 1204.26 34.66 1203.58 34.9C1202.9 35.1267 1202.08 35.24 1201.14 35.24C1200.3 35.24 1199.57 35.1533 1198.96 34.98C1198.36 34.7933 1197.86 34.56 1197.46 34.28C1197.06 33.9867 1196.74 33.68 1196.52 33.36C1196.3 33.0267 1196.16 32.7133 1196.08 32.42C1196 32.1267 1195.97 31.8867 1196 31.7Z" fill="black"/>
<path d="M1237.56 22.5345C1237.88 21.6639 1239.12 21.6639 1239.44 22.5345L1240.5 25.408C1240.6 25.6818 1240.82 25.8976 1241.09 25.9988L1243.97 27.0621C1244.84 27.3843 1244.84 28.6157 1243.97 28.9379L1241.09 30.0012C1240.82 30.1024 1240.6 30.3182 1240.5 30.592L1239.44 33.4655C1239.12 34.3361 1237.88 34.3361 1237.56 33.4655L1236.5 30.592C1236.4 30.3182 1236.18 30.1024 1235.91 30.0012L1233.03 28.9379C1232.16 28.6157 1232.16 27.3843 1233.03 27.0621L1235.91 25.9988C1236.18 25.8976 1236.4 25.6818 1236.5 25.408L1237.56 22.5345Z" fill="black"/>
<path d="M1274.34 30.8V28.68H1280.26C1280.97 28.68 1281.53 28.4933 1281.94 28.12C1282.35 27.7333 1282.56 27.2 1282.56 26.52C1282.56 25.8133 1282.35 25.2733 1281.94 24.9C1281.53 24.5267 1280.97 24.34 1280.26 24.34H1274.66V35H1272V22.06H1280.02C1280.74 22.06 1281.41 22.1467 1282.04 22.32C1282.68 22.4933 1283.23 22.76 1283.7 23.12C1284.18 23.48 1284.55 23.94 1284.82 24.5C1285.09 25.06 1285.22 25.7333 1285.22 26.52C1285.22 27.2933 1285.09 27.9533 1284.82 28.5C1284.55 29.0467 1284.18 29.4933 1283.7 29.84C1283.23 30.1733 1282.68 30.42 1282.04 30.58C1281.41 30.7267 1280.74 30.8 1280.02 30.8H1274.34ZM1291.89 35.22C1290.9 35.22 1290 35.0067 1289.19 34.58C1288.39 34.14 1287.75 33.5333 1287.27 32.76C1286.8 31.9733 1286.57 31.0667 1286.57 30.04C1286.57 28.9867 1286.81 28.0733 1287.29 27.3C1287.77 26.5267 1288.42 25.9267 1289.23 25.5C1290.06 25.06 1290.99 24.84 1292.03 24.84C1293.18 24.84 1294.1 25.0733 1294.79 25.54C1295.5 25.9933 1296.01 26.6133 1296.33 27.4C1296.65 28.1867 1296.81 29.0667 1296.81 30.04C1296.81 30.6267 1296.72 31.2267 1296.53 31.84C1296.34 32.44 1296.06 33 1295.67 33.52C1295.28 34.0267 1294.78 34.44 1294.15 34.76C1293.52 35.0667 1292.77 35.22 1291.89 35.22ZM1292.73 33.22C1293.52 33.22 1294.2 33.0867 1294.77 32.82C1295.34 32.5533 1295.78 32.18 1296.09 31.7C1296.4 31.22 1296.55 30.6667 1296.55 30.04C1296.55 29.36 1296.39 28.7867 1296.07 28.32C1295.76 27.84 1295.32 27.48 1294.75 27.24C1294.19 26.9867 1293.52 26.86 1292.73 26.86C1291.62 26.86 1290.76 27.1533 1290.15 27.74C1289.54 28.3133 1289.23 29.08 1289.23 30.04C1289.23 30.68 1289.38 31.24 1289.67 31.72C1289.96 32.1867 1290.37 32.5533 1290.89 32.82C1291.42 33.0867 1292.04 33.22 1292.73 33.22ZM1296.55 25.06H1299.15V35H1296.73C1296.73 35 1296.71 34.8733 1296.67 34.62C1296.64 34.3533 1296.62 34.02 1296.59 33.62C1296.56 33.22 1296.55 32.8267 1296.55 32.44V25.06ZM1300.8 25.06H1308.52V27.08H1300.8V25.06ZM1303.36 22.34H1305.96V35H1303.36V22.34ZM1313.16 20.7V22.98H1310.14V20.7H1313.16ZM1310.34 25.06H1312.94V35H1310.34V25.06ZM1315.53 25.06H1318.13V35H1315.53V25.06ZM1322.75 24.84C1323.36 24.84 1323.93 24.92 1324.45 25.08C1324.97 25.24 1325.42 25.4867 1325.81 25.82C1326.19 26.1533 1326.49 26.58 1326.71 27.1C1326.92 27.6067 1327.03 28.2133 1327.03 28.92V35H1324.43V29.38C1324.43 28.54 1324.22 27.9267 1323.81 27.54C1323.41 27.14 1322.75 26.94 1321.83 26.94C1321.13 26.94 1320.51 27.0733 1319.95 27.34C1319.39 27.6067 1318.93 27.9467 1318.59 28.36C1318.24 28.76 1318.04 29.18 1317.99 29.62L1317.97 28.6C1318.03 28.1333 1318.19 27.68 1318.43 27.24C1318.67 26.8 1318.99 26.4 1319.39 26.04C1319.8 25.6667 1320.29 25.3733 1320.85 25.16C1321.41 24.9467 1322.04 24.84 1322.75 24.84ZM1329 31.7H1331.4C1331.54 32.1533 1331.84 32.5267 1332.3 32.82C1332.76 33.1 1333.37 33.24 1334.12 33.24C1334.62 33.24 1335.02 33.1933 1335.3 33.1C1335.58 33.0067 1335.77 32.8733 1335.88 32.7C1335.98 32.5133 1336.04 32.3067 1336.04 32.08C1336.04 31.8 1335.95 31.5867 1335.78 31.44C1335.6 31.28 1335.34 31.1533 1334.98 31.06C1334.62 30.9667 1334.16 30.88 1333.6 30.8C1333.04 30.7067 1332.5 30.5933 1331.98 30.46C1331.46 30.3267 1331 30.1533 1330.6 29.94C1330.2 29.7133 1329.88 29.4333 1329.64 29.1C1329.41 28.7533 1329.3 28.3333 1329.3 27.84C1329.3 27.36 1329.41 26.9333 1329.64 26.56C1329.88 26.1867 1330.2 25.8733 1330.62 25.62C1331.04 25.3667 1331.54 25.1733 1332.1 25.04C1332.67 24.9067 1333.28 24.84 1333.94 24.84C1334.92 24.84 1335.74 24.9867 1336.4 25.28C1337.05 25.56 1337.54 25.96 1337.86 26.48C1338.19 26.9867 1338.36 27.5733 1338.36 28.24H1336.06C1335.95 27.7467 1335.74 27.3933 1335.42 27.18C1335.1 26.9533 1334.6 26.84 1333.94 26.84C1333.28 26.84 1332.79 26.94 1332.46 27.14C1332.12 27.34 1331.96 27.6133 1331.96 27.96C1331.96 28.24 1332.06 28.46 1332.26 28.62C1332.47 28.7667 1332.78 28.8867 1333.18 28.98C1333.59 29.0733 1334.1 29.1733 1334.72 29.28C1335.24 29.3867 1335.73 29.5067 1336.2 29.64C1336.68 29.7733 1337.1 29.9467 1337.48 30.16C1337.85 30.36 1338.14 30.6333 1338.36 30.98C1338.58 31.3133 1338.7 31.74 1338.7 32.26C1338.7 32.9 1338.51 33.44 1338.14 33.88C1337.78 34.32 1337.26 34.66 1336.58 34.9C1335.9 35.1267 1335.08 35.24 1334.14 35.24C1333.3 35.24 1332.57 35.1533 1331.96 34.98C1331.36 34.7933 1330.86 34.56 1330.46 34.28C1330.06 33.9867 1329.74 33.68 1329.52 33.36C1329.3 33.0267 1329.16 32.7133 1329.08 32.42C1329 32.1267 1328.97 31.8867 1329 31.7Z" fill="black"/>
</g>
<defs>
<clipPath id="clip0_3119_578">
<rect width="1280" height="56" fill="white"/>
</clipPath>
</defs>
</svg>
