<svg width="1280" height="56" viewBox="0 0 1280 56" fill="none" xmlns="http://www.w3.org/2000/svg">
<g clip-path="url(#clip0_3119_1545)">
<rect width="2527" height="56" transform="translate(-1197)" fill="#F472B6"/>
<path d="M-0.937851 22.5345C-0.615694 21.6639 0.615694 21.6639 0.937852 22.5345L2.00115 25.408C2.10244 25.6818 2.31825 25.8976 2.59197 25.9988L5.4655 27.0621C6.33611 27.3843 6.33611 28.6157 5.4655 28.9379L2.59197 30.0012C2.31825 30.1024 2.10244 30.3182 2.00115 30.592L0.937851 33.4655C0.615693 34.3361 -0.615694 34.3361 -0.937852 33.4655L-2.00115 30.592C-2.10244 30.3182 -2.31825 30.1024 -2.59197 30.0012L-5.4655 28.9379C-6.33611 28.6157 -6.33611 27.3843 -5.46549 27.0621L-2.59197 25.9988C-2.31825 25.8976 -2.10244 25.6818 -2.00115 25.408L-0.937851 22.5345Z" fill="black"/>
<path d="M35.84 30.8V28.68H41.76C42.4667 28.68 43.0267 28.4933 43.44 28.12C43.8533 27.7333 44.06 27.2 44.06 26.52C44.06 25.8133 43.8533 25.2733 43.44 24.9C43.0267 24.5267 42.4667 24.34 41.76 24.34H36.16V35H33.5V22.06H41.52C42.24 22.06 42.9133 22.1467 43.54 22.32C44.18 22.4933 44.7333 22.76 45.2 23.12C45.68 23.48 46.0533 23.94 46.32 24.5C46.5867 25.06 46.72 25.7333 46.72 26.52C46.72 27.2933 46.5867 27.9533 46.32 28.5C46.0533 29.0467 45.68 29.4933 45.2 29.84C44.7333 30.1733 44.18 30.42 43.54 30.58C42.9133 30.7267 42.24 30.8 41.52 30.8H35.84ZM53.3916 35.22C52.4049 35.22 51.5049 35.0067 50.6916 34.58C49.8916 34.14 49.2516 33.5333 48.7716 32.76C48.3049 31.9733 48.0716 31.0667 48.0716 30.04C48.0716 28.9867 48.3116 28.0733 48.7916 27.3C49.2716 26.5267 49.9182 25.9267 50.7316 25.5C51.5582 25.06 52.4916 24.84 53.5316 24.84C54.6782 24.84 55.5982 25.0733 56.2916 25.54C56.9982 25.9933 57.5116 26.6133 57.8316 27.4C58.1516 28.1867 58.3116 29.0667 58.3116 30.04C58.3116 30.6267 58.2182 31.2267 58.0316 31.84C57.8449 32.44 57.5582 33 57.1716 33.52C56.7849 34.0267 56.2782 34.44 55.6516 34.76C55.0249 35.0667 54.2716 35.22 53.3916 35.22ZM54.2316 33.22C55.0182 33.22 55.6982 33.0867 56.2716 32.82C56.8449 32.5533 57.2849 32.18 57.5916 31.7C57.8982 31.22 58.0516 30.6667 58.0516 30.04C58.0516 29.36 57.8916 28.7867 57.5716 28.32C57.2649 27.84 56.8249 27.48 56.2516 27.24C55.6916 26.9867 55.0182 26.86 54.2316 26.86C53.1249 26.86 52.2649 27.1533 51.6516 27.74C51.0382 28.3133 50.7316 29.08 50.7316 30.04C50.7316 30.68 50.8782 31.24 51.1716 31.72C51.4649 32.1867 51.8716 32.5533 52.3916 32.82C52.9249 33.0867 53.5382 33.22 54.2316 33.22ZM58.0516 25.06H60.6516V35H58.2316C58.2316 35 58.2116 34.8733 58.1716 34.62C58.1449 34.3533 58.1182 34.02 58.0916 33.62C58.0649 33.22 58.0516 32.8267 58.0516 32.44V25.06ZM62.3047 25.06H70.0247V27.08H62.3047V25.06ZM64.8647 22.34H67.4647V35H64.8647V22.34ZM74.6566 20.7V22.98H71.6366V20.7H74.6566ZM71.8366 25.06H74.4366V35H71.8366V25.06ZM77.0281 25.06H79.6281V35H77.0281V25.06ZM84.2481 24.84C84.8615 24.84 85.4281 24.92 85.9481 25.08C86.4681 25.24 86.9215 25.4867 87.3081 25.82C87.6948 26.1533 87.9948 26.58 88.2081 27.1C88.4215 27.6067 88.5281 28.2133 88.5281 28.92V35H85.9281V29.38C85.9281 28.54 85.7215 27.9267 85.3081 27.54C84.9081 27.14 84.2481 26.94 83.3281 26.94C82.6348 26.94 82.0081 27.0733 81.4481 27.34C80.8881 27.6067 80.4348 27.9467 80.0881 28.36C79.7415 28.76 79.5415 29.18 79.4881 29.62L79.4681 28.6C79.5348 28.1333 79.6881 27.68 79.9281 27.24C80.1681 26.8 80.4881 26.4 80.8881 26.04C81.3015 25.6667 81.7881 25.3733 82.3481 25.16C82.9081 24.9467 83.5415 24.84 84.2481 24.84ZM90.4953 31.7H92.8953C93.042 32.1533 93.342 32.5267 93.7953 32.82C94.262 33.1 94.8686 33.24 95.6153 33.24C96.122 33.24 96.5153 33.1933 96.7953 33.1C97.0753 33.0067 97.2686 32.8733 97.3753 32.7C97.482 32.5133 97.5353 32.3067 97.5353 32.08C97.5353 31.8 97.4486 31.5867 97.2753 31.44C97.102 31.28 96.8353 31.1533 96.4753 31.06C96.1153 30.9667 95.6553 30.88 95.0953 30.8C94.5353 30.7067 93.9953 30.5933 93.4753 30.46C92.9553 30.3267 92.4953 30.1533 92.0953 29.94C91.6953 29.7133 91.3753 29.4333 91.1353 29.1C90.9086 28.7533 90.7953 28.3333 90.7953 27.84C90.7953 27.36 90.9086 26.9333 91.1353 26.56C91.3753 26.1867 91.702 25.8733 92.1153 25.62C92.542 25.3667 93.0353 25.1733 93.5953 25.04C94.1686 24.9067 94.782 24.84 95.4353 24.84C96.422 24.84 97.242 24.9867 97.8953 25.28C98.5486 25.56 99.0353 25.96 99.3553 26.48C99.6886 26.9867 99.8553 27.5733 99.8553 28.24H97.5553C97.4486 27.7467 97.2353 27.3933 96.9153 27.18C96.5953 26.9533 96.102 26.84 95.4353 26.84C94.782 26.84 94.2886 26.94 93.9553 27.14C93.622 27.34 93.4553 27.6133 93.4553 27.96C93.4553 28.24 93.5553 28.46 93.7553 28.62C93.9686 28.7667 94.2753 28.8867 94.6753 28.98C95.0886 29.0733 95.602 29.1733 96.2153 29.28C96.7353 29.3867 97.2286 29.5067 97.6953 29.64C98.1753 29.7733 98.602 29.9467 98.9753 30.16C99.3486 30.36 99.642 30.6333 99.8553 30.98C100.082 31.3133 100.195 31.74 100.195 32.26C100.195 32.9 100.009 33.44 99.6353 33.88C99.2753 34.32 98.7553 34.66 98.0753 34.9C97.3953 35.1267 96.582 35.24 95.6353 35.24C94.7953 35.24 94.0686 35.1533 93.4553 34.98C92.8553 34.7933 92.3553 34.56 91.9553 34.28C91.5553 33.9867 91.242 33.68 91.0153 33.36C90.802 33.0267 90.6553 32.7133 90.5753 32.42C90.4953 32.1267 90.4686 31.8867 90.4953 31.7Z" fill="black"/>
<path d="M132.062 22.5345C132.384 21.6639 133.616 21.6639 133.938 22.5345L135.001 25.408C135.102 25.6818 135.318 25.8976 135.592 25.9988L138.465 27.0621C139.336 27.3843 139.336 28.6157 138.465 28.9379L135.592 30.0012C135.318 30.1024 135.102 30.3182 135.001 30.592L133.938 33.4655C133.616 34.3361 132.384 34.3361 132.062 33.4655L130.999 30.592C130.898 30.3182 130.682 30.1024 130.408 30.0012L127.535 28.9379C126.664 28.6157 126.664 27.3843 127.535 27.0621L130.408 25.9988C130.682 25.8976 130.898 25.6818 130.999 25.408L132.062 22.5345Z" fill="black"/>
<path d="M168.84 30.8V28.68H174.76C175.467 28.68 176.027 28.4933 176.44 28.12C176.853 27.7333 177.06 27.2 177.06 26.52C177.06 25.8133 176.853 25.2733 176.44 24.9C176.027 24.5267 175.467 24.34 174.76 24.34H169.16V35H166.5V22.06H174.52C175.24 22.06 175.913 22.1467 176.54 22.32C177.18 22.4933 177.733 22.76 178.2 23.12C178.68 23.48 179.053 23.94 179.32 24.5C179.587 25.06 179.72 25.7333 179.72 26.52C179.72 27.2933 179.587 27.9533 179.32 28.5C179.053 29.0467 178.68 29.4933 178.2 29.84C177.733 30.1733 177.18 30.42 176.54 30.58C175.913 30.7267 175.24 30.8 174.52 30.8H168.84ZM186.392 35.22C185.405 35.22 184.505 35.0067 183.692 34.58C182.892 34.14 182.252 33.5333 181.772 32.76C181.305 31.9733 181.072 31.0667 181.072 30.04C181.072 28.9867 181.312 28.0733 181.792 27.3C182.272 26.5267 182.918 25.9267 183.732 25.5C184.558 25.06 185.492 24.84 186.532 24.84C187.678 24.84 188.598 25.0733 189.292 25.54C189.998 25.9933 190.512 26.6133 190.832 27.4C191.152 28.1867 191.312 29.0667 191.312 30.04C191.312 30.6267 191.218 31.2267 191.032 31.84C190.845 32.44 190.558 33 190.172 33.52C189.785 34.0267 189.278 34.44 188.652 34.76C188.025 35.0667 187.272 35.22 186.392 35.22ZM187.232 33.22C188.018 33.22 188.698 33.0867 189.272 32.82C189.845 32.5533 190.285 32.18 190.592 31.7C190.898 31.22 191.052 30.6667 191.052 30.04C191.052 29.36 190.892 28.7867 190.572 28.32C190.265 27.84 189.825 27.48 189.252 27.24C188.692 26.9867 188.018 26.86 187.232 26.86C186.125 26.86 185.265 27.1533 184.652 27.74C184.038 28.3133 183.732 29.08 183.732 30.04C183.732 30.68 183.878 31.24 184.172 31.72C184.465 32.1867 184.872 32.5533 185.392 32.82C185.925 33.0867 186.538 33.22 187.232 33.22ZM191.052 25.06H193.652V35H191.232C191.232 35 191.212 34.8733 191.172 34.62C191.145 34.3533 191.118 34.02 191.092 33.62C191.065 33.22 191.052 32.8267 191.052 32.44V25.06ZM195.305 25.06H203.025V27.08H195.305V25.06ZM197.865 22.34H200.465V35H197.865V22.34ZM207.657 20.7V22.98H204.637V20.7H207.657ZM204.837 25.06H207.437V35H204.837V25.06ZM210.028 25.06H212.628V35H210.028V25.06ZM217.248 24.84C217.861 24.84 218.428 24.92 218.948 25.08C219.468 25.24 219.921 25.4867 220.308 25.82C220.695 26.1533 220.995 26.58 221.208 27.1C221.421 27.6067 221.528 28.2133 221.528 28.92V35H218.928V29.38C218.928 28.54 218.721 27.9267 218.308 27.54C217.908 27.14 217.248 26.94 216.328 26.94C215.635 26.94 215.008 27.0733 214.448 27.34C213.888 27.6067 213.435 27.9467 213.088 28.36C212.741 28.76 212.541 29.18 212.488 29.62L212.468 28.6C212.535 28.1333 212.688 27.68 212.928 27.24C213.168 26.8 213.488 26.4 213.888 26.04C214.301 25.6667 214.788 25.3733 215.348 25.16C215.908 24.9467 216.541 24.84 217.248 24.84ZM223.495 31.7H225.895C226.042 32.1533 226.342 32.5267 226.795 32.82C227.262 33.1 227.869 33.24 228.615 33.24C229.122 33.24 229.515 33.1933 229.795 33.1C230.075 33.0067 230.269 32.8733 230.375 32.7C230.482 32.5133 230.535 32.3067 230.535 32.08C230.535 31.8 230.449 31.5867 230.275 31.44C230.102 31.28 229.835 31.1533 229.475 31.06C229.115 30.9667 228.655 30.88 228.095 30.8C227.535 30.7067 226.995 30.5933 226.475 30.46C225.955 30.3267 225.495 30.1533 225.095 29.94C224.695 29.7133 224.375 29.4333 224.135 29.1C223.909 28.7533 223.795 28.3333 223.795 27.84C223.795 27.36 223.909 26.9333 224.135 26.56C224.375 26.1867 224.702 25.8733 225.115 25.62C225.542 25.3667 226.035 25.1733 226.595 25.04C227.169 24.9067 227.782 24.84 228.435 24.84C229.422 24.84 230.242 24.9867 230.895 25.28C231.549 25.56 232.035 25.96 232.355 26.48C232.689 26.9867 232.855 27.5733 232.855 28.24H230.555C230.449 27.7467 230.235 27.3933 229.915 27.18C229.595 26.9533 229.102 26.84 228.435 26.84C227.782 26.84 227.289 26.94 226.955 27.14C226.622 27.34 226.455 27.6133 226.455 27.96C226.455 28.24 226.555 28.46 226.755 28.62C226.969 28.7667 227.275 28.8867 227.675 28.98C228.089 29.0733 228.602 29.1733 229.215 29.28C229.735 29.3867 230.229 29.5067 230.695 29.64C231.175 29.7733 231.602 29.9467 231.975 30.16C232.349 30.36 232.642 30.6333 232.855 30.98C233.082 31.3133 233.195 31.74 233.195 32.26C233.195 32.9 233.009 33.44 232.635 33.88C232.275 34.32 231.755 34.66 231.075 34.9C230.395 35.1267 229.582 35.24 228.635 35.24C227.795 35.24 227.069 35.1533 226.455 34.98C225.855 34.7933 225.355 34.56 224.955 34.28C224.555 33.9867 224.242 33.68 224.015 33.36C223.802 33.0267 223.655 32.7133 223.575 32.42C223.495 32.1267 223.469 31.8867 223.495 31.7Z" fill="black"/>
<path d="M265.062 22.5345C265.384 21.6639 266.616 21.6639 266.938 22.5345L268.001 25.408C268.102 25.6818 268.318 25.8976 268.592 25.9988L271.465 27.0621C272.336 27.3843 272.336 28.6157 271.465 28.9379L268.592 30.0012C268.318 30.1024 268.102 30.3182 268.001 30.592L266.938 33.4655C266.616 34.3361 265.384 34.3361 265.062 33.4655L263.999 30.592C263.898 30.3182 263.682 30.1024 263.408 30.0012L260.535 28.9379C259.664 28.6157 259.664 27.3843 260.535 27.0621L263.408 25.9988C263.682 25.8976 263.898 25.6818 263.999 25.408L265.062 22.5345Z" fill="black"/>
<path d="M301.84 30.8V28.68H307.76C308.467 28.68 309.027 28.4933 309.44 28.12C309.853 27.7333 310.06 27.2 310.06 26.52C310.06 25.8133 309.853 25.2733 309.44 24.9C309.027 24.5267 308.467 24.34 307.76 24.34H302.16V35H299.5V22.06H307.52C308.24 22.06 308.913 22.1467 309.54 22.32C310.18 22.4933 310.733 22.76 311.2 23.12C311.68 23.48 312.053 23.94 312.32 24.5C312.587 25.06 312.72 25.7333 312.72 26.52C312.72 27.2933 312.587 27.9533 312.32 28.5C312.053 29.0467 311.68 29.4933 311.2 29.84C310.733 30.1733 310.18 30.42 309.54 30.58C308.913 30.7267 308.24 30.8 307.52 30.8H301.84ZM319.392 35.22C318.405 35.22 317.505 35.0067 316.692 34.58C315.892 34.14 315.252 33.5333 314.772 32.76C314.305 31.9733 314.072 31.0667 314.072 30.04C314.072 28.9867 314.312 28.0733 314.792 27.3C315.272 26.5267 315.918 25.9267 316.732 25.5C317.558 25.06 318.492 24.84 319.532 24.84C320.678 24.84 321.598 25.0733 322.292 25.54C322.998 25.9933 323.512 26.6133 323.832 27.4C324.152 28.1867 324.312 29.0667 324.312 30.04C324.312 30.6267 324.218 31.2267 324.032 31.84C323.845 32.44 323.558 33 323.172 33.52C322.785 34.0267 322.278 34.44 321.652 34.76C321.025 35.0667 320.272 35.22 319.392 35.22ZM320.232 33.22C321.018 33.22 321.698 33.0867 322.272 32.82C322.845 32.5533 323.285 32.18 323.592 31.7C323.898 31.22 324.052 30.6667 324.052 30.04C324.052 29.36 323.892 28.7867 323.572 28.32C323.265 27.84 322.825 27.48 322.252 27.24C321.692 26.9867 321.018 26.86 320.232 26.86C319.125 26.86 318.265 27.1533 317.652 27.74C317.038 28.3133 316.732 29.08 316.732 30.04C316.732 30.68 316.878 31.24 317.172 31.72C317.465 32.1867 317.872 32.5533 318.392 32.82C318.925 33.0867 319.538 33.22 320.232 33.22ZM324.052 25.06H326.652V35H324.232C324.232 35 324.212 34.8733 324.172 34.62C324.145 34.3533 324.118 34.02 324.092 33.62C324.065 33.22 324.052 32.8267 324.052 32.44V25.06ZM328.305 25.06H336.025V27.08H328.305V25.06ZM330.865 22.34H333.465V35H330.865V22.34ZM340.657 20.7V22.98H337.637V20.7H340.657ZM337.837 25.06H340.437V35H337.837V25.06ZM343.028 25.06H345.628V35H343.028V25.06ZM350.248 24.84C350.861 24.84 351.428 24.92 351.948 25.08C352.468 25.24 352.921 25.4867 353.308 25.82C353.695 26.1533 353.995 26.58 354.208 27.1C354.421 27.6067 354.528 28.2133 354.528 28.92V35H351.928V29.38C351.928 28.54 351.721 27.9267 351.308 27.54C350.908 27.14 350.248 26.94 349.328 26.94C348.635 26.94 348.008 27.0733 347.448 27.34C346.888 27.6067 346.435 27.9467 346.088 28.36C345.741 28.76 345.541 29.18 345.488 29.62L345.468 28.6C345.535 28.1333 345.688 27.68 345.928 27.24C346.168 26.8 346.488 26.4 346.888 26.04C347.301 25.6667 347.788 25.3733 348.348 25.16C348.908 24.9467 349.541 24.84 350.248 24.84ZM356.495 31.7H358.895C359.042 32.1533 359.342 32.5267 359.795 32.82C360.262 33.1 360.869 33.24 361.615 33.24C362.122 33.24 362.515 33.1933 362.795 33.1C363.075 33.0067 363.269 32.8733 363.375 32.7C363.482 32.5133 363.535 32.3067 363.535 32.08C363.535 31.8 363.449 31.5867 363.275 31.44C363.102 31.28 362.835 31.1533 362.475 31.06C362.115 30.9667 361.655 30.88 361.095 30.8C360.535 30.7067 359.995 30.5933 359.475 30.46C358.955 30.3267 358.495 30.1533 358.095 29.94C357.695 29.7133 357.375 29.4333 357.135 29.1C356.909 28.7533 356.795 28.3333 356.795 27.84C356.795 27.36 356.909 26.9333 357.135 26.56C357.375 26.1867 357.702 25.8733 358.115 25.62C358.542 25.3667 359.035 25.1733 359.595 25.04C360.169 24.9067 360.782 24.84 361.435 24.84C362.422 24.84 363.242 24.9867 363.895 25.28C364.549 25.56 365.035 25.96 365.355 26.48C365.689 26.9867 365.855 27.5733 365.855 28.24H363.555C363.449 27.7467 363.235 27.3933 362.915 27.18C362.595 26.9533 362.102 26.84 361.435 26.84C360.782 26.84 360.289 26.94 359.955 27.14C359.622 27.34 359.455 27.6133 359.455 27.96C359.455 28.24 359.555 28.46 359.755 28.62C359.969 28.7667 360.275 28.8867 360.675 28.98C361.089 29.0733 361.602 29.1733 362.215 29.28C362.735 29.3867 363.229 29.5067 363.695 29.64C364.175 29.7733 364.602 29.9467 364.975 30.16C365.349 30.36 365.642 30.6333 365.855 30.98C366.082 31.3133 366.195 31.74 366.195 32.26C366.195 32.9 366.009 33.44 365.635 33.88C365.275 34.32 364.755 34.66 364.075 34.9C363.395 35.1267 362.582 35.24 361.635 35.24C360.795 35.24 360.069 35.1533 359.455 34.98C358.855 34.7933 358.355 34.56 357.955 34.28C357.555 33.9867 357.242 33.68 357.015 33.36C356.802 33.0267 356.655 32.7133 356.575 32.42C356.495 32.1267 356.469 31.8867 356.495 31.7Z" fill="black"/>
<path d="M398.062 22.5345C398.384 21.6639 399.616 21.6639 399.938 22.5345L401.001 25.408C401.102 25.6818 401.318 25.8976 401.592 25.9988L404.465 27.0621C405.336 27.3843 405.336 28.6157 404.465 28.9379L401.592 30.0012C401.318 30.1024 401.102 30.3182 401.001 30.592L399.938 33.4655C399.616 34.3361 398.384 34.3361 398.062 33.4655L396.999 30.592C396.898 30.3182 396.682 30.1024 396.408 30.0012L393.535 28.9379C392.664 28.6157 392.664 27.3843 393.535 27.0621L396.408 25.9988C396.682 25.8976 396.898 25.6818 396.999 25.408L398.062 22.5345Z" fill="black"/>
<path d="M434.84 30.8V28.68H440.76C441.467 28.68 442.027 28.4933 442.44 28.12C442.853 27.7333 443.06 27.2 443.06 26.52C443.06 25.8133 442.853 25.2733 442.44 24.9C442.027 24.5267 441.467 24.34 440.76 24.34H435.16V35H432.5V22.06H440.52C441.24 22.06 441.913 22.1467 442.54 22.32C443.18 22.4933 443.733 22.76 444.2 23.12C444.68 23.48 445.053 23.94 445.32 24.5C445.587 25.06 445.72 25.7333 445.72 26.52C445.72 27.2933 445.587 27.9533 445.32 28.5C445.053 29.0467 444.68 29.4933 444.2 29.84C443.733 30.1733 443.18 30.42 442.54 30.58C441.913 30.7267 441.24 30.8 440.52 30.8H434.84ZM452.392 35.22C451.405 35.22 450.505 35.0067 449.692 34.58C448.892 34.14 448.252 33.5333 447.772 32.76C447.305 31.9733 447.072 31.0667 447.072 30.04C447.072 28.9867 447.312 28.0733 447.792 27.3C448.272 26.5267 448.918 25.9267 449.732 25.5C450.558 25.06 451.492 24.84 452.532 24.84C453.678 24.84 454.598 25.0733 455.292 25.54C455.998 25.9933 456.512 26.6133 456.832 27.4C457.152 28.1867 457.312 29.0667 457.312 30.04C457.312 30.6267 457.218 31.2267 457.032 31.84C456.845 32.44 456.558 33 456.172 33.52C455.785 34.0267 455.278 34.44 454.652 34.76C454.025 35.0667 453.272 35.22 452.392 35.22ZM453.232 33.22C454.018 33.22 454.698 33.0867 455.272 32.82C455.845 32.5533 456.285 32.18 456.592 31.7C456.898 31.22 457.052 30.6667 457.052 30.04C457.052 29.36 456.892 28.7867 456.572 28.32C456.265 27.84 455.825 27.48 455.252 27.24C454.692 26.9867 454.018 26.86 453.232 26.86C452.125 26.86 451.265 27.1533 450.652 27.74C450.038 28.3133 449.732 29.08 449.732 30.04C449.732 30.68 449.878 31.24 450.172 31.72C450.465 32.1867 450.872 32.5533 451.392 32.82C451.925 33.0867 452.538 33.22 453.232 33.22ZM457.052 25.06H459.652V35H457.232C457.232 35 457.212 34.8733 457.172 34.62C457.145 34.3533 457.118 34.02 457.092 33.62C457.065 33.22 457.052 32.8267 457.052 32.44V25.06ZM461.305 25.06H469.025V27.08H461.305V25.06ZM463.865 22.34H466.465V35H463.865V22.34ZM473.657 20.7V22.98H470.637V20.7H473.657ZM470.837 25.06H473.437V35H470.837V25.06ZM476.028 25.06H478.628V35H476.028V25.06ZM483.248 24.84C483.861 24.84 484.428 24.92 484.948 25.08C485.468 25.24 485.921 25.4867 486.308 25.82C486.695 26.1533 486.995 26.58 487.208 27.1C487.421 27.6067 487.528 28.2133 487.528 28.92V35H484.928V29.38C484.928 28.54 484.721 27.9267 484.308 27.54C483.908 27.14 483.248 26.94 482.328 26.94C481.635 26.94 481.008 27.0733 480.448 27.34C479.888 27.6067 479.435 27.9467 479.088 28.36C478.741 28.76 478.541 29.18 478.488 29.62L478.468 28.6C478.535 28.1333 478.688 27.68 478.928 27.24C479.168 26.8 479.488 26.4 479.888 26.04C480.301 25.6667 480.788 25.3733 481.348 25.16C481.908 24.9467 482.541 24.84 483.248 24.84ZM489.495 31.7H491.895C492.042 32.1533 492.342 32.5267 492.795 32.82C493.262 33.1 493.869 33.24 494.615 33.24C495.122 33.24 495.515 33.1933 495.795 33.1C496.075 33.0067 496.269 32.8733 496.375 32.7C496.482 32.5133 496.535 32.3067 496.535 32.08C496.535 31.8 496.449 31.5867 496.275 31.44C496.102 31.28 495.835 31.1533 495.475 31.06C495.115 30.9667 494.655 30.88 494.095 30.8C493.535 30.7067 492.995 30.5933 492.475 30.46C491.955 30.3267 491.495 30.1533 491.095 29.94C490.695 29.7133 490.375 29.4333 490.135 29.1C489.909 28.7533 489.795 28.3333 489.795 27.84C489.795 27.36 489.909 26.9333 490.135 26.56C490.375 26.1867 490.702 25.8733 491.115 25.62C491.542 25.3667 492.035 25.1733 492.595 25.04C493.169 24.9067 493.782 24.84 494.435 24.84C495.422 24.84 496.242 24.9867 496.895 25.28C497.549 25.56 498.035 25.96 498.355 26.48C498.689 26.9867 498.855 27.5733 498.855 28.24H496.555C496.449 27.7467 496.235 27.3933 495.915 27.18C495.595 26.9533 495.102 26.84 494.435 26.84C493.782 26.84 493.289 26.94 492.955 27.14C492.622 27.34 492.455 27.6133 492.455 27.96C492.455 28.24 492.555 28.46 492.755 28.62C492.969 28.7667 493.275 28.8867 493.675 28.98C494.089 29.0733 494.602 29.1733 495.215 29.28C495.735 29.3867 496.229 29.5067 496.695 29.64C497.175 29.7733 497.602 29.9467 497.975 30.16C498.349 30.36 498.642 30.6333 498.855 30.98C499.082 31.3133 499.195 31.74 499.195 32.26C499.195 32.9 499.009 33.44 498.635 33.88C498.275 34.32 497.755 34.66 497.075 34.9C496.395 35.1267 495.582 35.24 494.635 35.24C493.795 35.24 493.069 35.1533 492.455 34.98C491.855 34.7933 491.355 34.56 490.955 34.28C490.555 33.9867 490.242 33.68 490.015 33.36C489.802 33.0267 489.655 32.7133 489.575 32.42C489.495 32.1267 489.469 31.8867 489.495 31.7Z" fill="black"/>
<path d="M531.062 22.5345C531.384 21.6639 532.616 21.6639 532.938 22.5345L534.001 25.408C534.102 25.6818 534.318 25.8976 534.592 25.9988L537.465 27.0621C538.336 27.3843 538.336 28.6157 537.465 28.9379L534.592 30.0012C534.318 30.1024 534.102 30.3182 534.001 30.592L532.938 33.4655C532.616 34.3361 531.384 34.3361 531.062 33.4655L529.999 30.592C529.898 30.3182 529.682 30.1024 529.408 30.0012L526.535 28.9379C525.664 28.6157 525.664 27.3843 526.535 27.0621L529.408 25.9988C529.682 25.8976 529.898 25.6818 529.999 25.408L531.062 22.5345Z" fill="black"/>
<path d="M567.84 30.8V28.68H573.76C574.467 28.68 575.027 28.4933 575.44 28.12C575.853 27.7333 576.06 27.2 576.06 26.52C576.06 25.8133 575.853 25.2733 575.44 24.9C575.027 24.5267 574.467 24.34 573.76 24.34H568.16V35H565.5V22.06H573.52C574.24 22.06 574.913 22.1467 575.54 22.32C576.18 22.4933 576.733 22.76 577.2 23.12C577.68 23.48 578.053 23.94 578.32 24.5C578.587 25.06 578.72 25.7333 578.72 26.52C578.72 27.2933 578.587 27.9533 578.32 28.5C578.053 29.0467 577.68 29.4933 577.2 29.84C576.733 30.1733 576.18 30.42 575.54 30.58C574.913 30.7267 574.24 30.8 573.52 30.8H567.84ZM585.392 35.22C584.405 35.22 583.505 35.0067 582.692 34.58C581.892 34.14 581.252 33.5333 580.772 32.76C580.305 31.9733 580.072 31.0667 580.072 30.04C580.072 28.9867 580.312 28.0733 580.792 27.3C581.272 26.5267 581.918 25.9267 582.732 25.5C583.558 25.06 584.492 24.84 585.532 24.84C586.678 24.84 587.598 25.0733 588.292 25.54C588.998 25.9933 589.512 26.6133 589.832 27.4C590.152 28.1867 590.312 29.0667 590.312 30.04C590.312 30.6267 590.218 31.2267 590.032 31.84C589.845 32.44 589.558 33 589.172 33.52C588.785 34.0267 588.278 34.44 587.652 34.76C587.025 35.0667 586.272 35.22 585.392 35.22ZM586.232 33.22C587.018 33.22 587.698 33.0867 588.272 32.82C588.845 32.5533 589.285 32.18 589.592 31.7C589.898 31.22 590.052 30.6667 590.052 30.04C590.052 29.36 589.892 28.7867 589.572 28.32C589.265 27.84 588.825 27.48 588.252 27.24C587.692 26.9867 587.018 26.86 586.232 26.86C585.125 26.86 584.265 27.1533 583.652 27.74C583.038 28.3133 582.732 29.08 582.732 30.04C582.732 30.68 582.878 31.24 583.172 31.72C583.465 32.1867 583.872 32.5533 584.392 32.82C584.925 33.0867 585.538 33.22 586.232 33.22ZM590.052 25.06H592.652V35H590.232C590.232 35 590.212 34.8733 590.172 34.62C590.145 34.3533 590.118 34.02 590.092 33.62C590.065 33.22 590.052 32.8267 590.052 32.44V25.06ZM594.305 25.06H602.025V27.08H594.305V25.06ZM596.865 22.34H599.465V35H596.865V22.34ZM606.657 20.7V22.98H603.637V20.7H606.657ZM603.837 25.06H606.437V35H603.837V25.06ZM609.028 25.06H611.628V35H609.028V25.06ZM616.248 24.84C616.861 24.84 617.428 24.92 617.948 25.08C618.468 25.24 618.921 25.4867 619.308 25.82C619.695 26.1533 619.995 26.58 620.208 27.1C620.421 27.6067 620.528 28.2133 620.528 28.92V35H617.928V29.38C617.928 28.54 617.721 27.9267 617.308 27.54C616.908 27.14 616.248 26.94 615.328 26.94C614.635 26.94 614.008 27.0733 613.448 27.34C612.888 27.6067 612.435 27.9467 612.088 28.36C611.741 28.76 611.541 29.18 611.488 29.62L611.468 28.6C611.535 28.1333 611.688 27.68 611.928 27.24C612.168 26.8 612.488 26.4 612.888 26.04C613.301 25.6667 613.788 25.3733 614.348 25.16C614.908 24.9467 615.541 24.84 616.248 24.84ZM622.495 31.7H624.895C625.042 32.1533 625.342 32.5267 625.795 32.82C626.262 33.1 626.869 33.24 627.615 33.24C628.122 33.24 628.515 33.1933 628.795 33.1C629.075 33.0067 629.269 32.8733 629.375 32.7C629.482 32.5133 629.535 32.3067 629.535 32.08C629.535 31.8 629.449 31.5867 629.275 31.44C629.102 31.28 628.835 31.1533 628.475 31.06C628.115 30.9667 627.655 30.88 627.095 30.8C626.535 30.7067 625.995 30.5933 625.475 30.46C624.955 30.3267 624.495 30.1533 624.095 29.94C623.695 29.7133 623.375 29.4333 623.135 29.1C622.909 28.7533 622.795 28.3333 622.795 27.84C622.795 27.36 622.909 26.9333 623.135 26.56C623.375 26.1867 623.702 25.8733 624.115 25.62C624.542 25.3667 625.035 25.1733 625.595 25.04C626.169 24.9067 626.782 24.84 627.435 24.84C628.422 24.84 629.242 24.9867 629.895 25.28C630.549 25.56 631.035 25.96 631.355 26.48C631.689 26.9867 631.855 27.5733 631.855 28.24H629.555C629.449 27.7467 629.235 27.3933 628.915 27.18C628.595 26.9533 628.102 26.84 627.435 26.84C626.782 26.84 626.289 26.94 625.955 27.14C625.622 27.34 625.455 27.6133 625.455 27.96C625.455 28.24 625.555 28.46 625.755 28.62C625.969 28.7667 626.275 28.8867 626.675 28.98C627.089 29.0733 627.602 29.1733 628.215 29.28C628.735 29.3867 629.229 29.5067 629.695 29.64C630.175 29.7733 630.602 29.9467 630.975 30.16C631.349 30.36 631.642 30.6333 631.855 30.98C632.082 31.3133 632.195 31.74 632.195 32.26C632.195 32.9 632.009 33.44 631.635 33.88C631.275 34.32 630.755 34.66 630.075 34.9C629.395 35.1267 628.582 35.24 627.635 35.24C626.795 35.24 626.069 35.1533 625.455 34.98C624.855 34.7933 624.355 34.56 623.955 34.28C623.555 33.9867 623.242 33.68 623.015 33.36C622.802 33.0267 622.655 32.7133 622.575 32.42C622.495 32.1267 622.469 31.8867 622.495 31.7Z" fill="black"/>
<path d="M664.062 22.5345C664.384 21.6639 665.616 21.6639 665.938 22.5345L667.001 25.408C667.102 25.6818 667.318 25.8976 667.592 25.9988L670.465 27.0621C671.336 27.3843 671.336 28.6157 670.465 28.9379L667.592 30.0012C667.318 30.1024 667.102 30.3182 667.001 30.592L665.938 33.4655C665.616 34.3361 664.384 34.3361 664.062 33.4655L662.999 30.592C662.898 30.3182 662.682 30.1024 662.408 30.0012L659.535 28.9379C658.664 28.6157 658.664 27.3843 659.535 27.0621L662.408 25.9988C662.682 25.8976 662.898 25.6818 662.999 25.408L664.062 22.5345Z" fill="black"/>
<path d="M700.84 30.8V28.68H706.76C707.467 28.68 708.027 28.4933 708.44 28.12C708.853 27.7333 709.06 27.2 709.06 26.52C709.06 25.8133 708.853 25.2733 708.44 24.9C708.027 24.5267 707.467 24.34 706.76 24.34H701.16V35H698.5V22.06H706.52C707.24 22.06 707.913 22.1467 708.54 22.32C709.18 22.4933 709.733 22.76 710.2 23.12C710.68 23.48 711.053 23.94 711.32 24.5C711.587 25.06 711.72 25.7333 711.72 26.52C711.72 27.2933 711.587 27.9533 711.32 28.5C711.053 29.0467 710.68 29.4933 710.2 29.84C709.733 30.1733 709.18 30.42 708.54 30.58C707.913 30.7267 707.24 30.8 706.52 30.8H700.84ZM718.392 35.22C717.405 35.22 716.505 35.0067 715.692 34.58C714.892 34.14 714.252 33.5333 713.772 32.76C713.305 31.9733 713.072 31.0667 713.072 30.04C713.072 28.9867 713.312 28.0733 713.792 27.3C714.272 26.5267 714.918 25.9267 715.732 25.5C716.558 25.06 717.492 24.84 718.532 24.84C719.678 24.84 720.598 25.0733 721.292 25.54C721.998 25.9933 722.512 26.6133 722.832 27.4C723.152 28.1867 723.312 29.0667 723.312 30.04C723.312 30.6267 723.218 31.2267 723.032 31.84C722.845 32.44 722.558 33 722.172 33.52C721.785 34.0267 721.278 34.44 720.652 34.76C720.025 35.0667 719.272 35.22 718.392 35.22ZM719.232 33.22C720.018 33.22 720.698 33.0867 721.272 32.82C721.845 32.5533 722.285 32.18 722.592 31.7C722.898 31.22 723.052 30.6667 723.052 30.04C723.052 29.36 722.892 28.7867 722.572 28.32C722.265 27.84 721.825 27.48 721.252 27.24C720.692 26.9867 720.018 26.86 719.232 26.86C718.125 26.86 717.265 27.1533 716.652 27.74C716.038 28.3133 715.732 29.08 715.732 30.04C715.732 30.68 715.878 31.24 716.172 31.72C716.465 32.1867 716.872 32.5533 717.392 32.82C717.925 33.0867 718.538 33.22 719.232 33.22ZM723.052 25.06H725.652V35H723.232C723.232 35 723.212 34.8733 723.172 34.62C723.145 34.3533 723.118 34.02 723.092 33.62C723.065 33.22 723.052 32.8267 723.052 32.44V25.06ZM727.305 25.06H735.025V27.08H727.305V25.06ZM729.865 22.34H732.465V35H729.865V22.34ZM739.657 20.7V22.98H736.637V20.7H739.657ZM736.837 25.06H739.437V35H736.837V25.06ZM742.028 25.06H744.628V35H742.028V25.06ZM749.248 24.84C749.861 24.84 750.428 24.92 750.948 25.08C751.468 25.24 751.921 25.4867 752.308 25.82C752.695 26.1533 752.995 26.58 753.208 27.1C753.421 27.6067 753.528 28.2133 753.528 28.92V35H750.928V29.38C750.928 28.54 750.721 27.9267 750.308 27.54C749.908 27.14 749.248 26.94 748.328 26.94C747.635 26.94 747.008 27.0733 746.448 27.34C745.888 27.6067 745.435 27.9467 745.088 28.36C744.741 28.76 744.541 29.18 744.488 29.62L744.468 28.6C744.535 28.1333 744.688 27.68 744.928 27.24C745.168 26.8 745.488 26.4 745.888 26.04C746.301 25.6667 746.788 25.3733 747.348 25.16C747.908 24.9467 748.541 24.84 749.248 24.84ZM755.495 31.7H757.895C758.042 32.1533 758.342 32.5267 758.795 32.82C759.262 33.1 759.869 33.24 760.615 33.24C761.122 33.24 761.515 33.1933 761.795 33.1C762.075 33.0067 762.269 32.8733 762.375 32.7C762.482 32.5133 762.535 32.3067 762.535 32.08C762.535 31.8 762.449 31.5867 762.275 31.44C762.102 31.28 761.835 31.1533 761.475 31.06C761.115 30.9667 760.655 30.88 760.095 30.8C759.535 30.7067 758.995 30.5933 758.475 30.46C757.955 30.3267 757.495 30.1533 757.095 29.94C756.695 29.7133 756.375 29.4333 756.135 29.1C755.909 28.7533 755.795 28.3333 755.795 27.84C755.795 27.36 755.909 26.9333 756.135 26.56C756.375 26.1867 756.702 25.8733 757.115 25.62C757.542 25.3667 758.035 25.1733 758.595 25.04C759.169 24.9067 759.782 24.84 760.435 24.84C761.422 24.84 762.242 24.9867 762.895 25.28C763.549 25.56 764.035 25.96 764.355 26.48C764.689 26.9867 764.855 27.5733 764.855 28.24H762.555C762.449 27.7467 762.235 27.3933 761.915 27.18C761.595 26.9533 761.102 26.84 760.435 26.84C759.782 26.84 759.289 26.94 758.955 27.14C758.622 27.34 758.455 27.6133 758.455 27.96C758.455 28.24 758.555 28.46 758.755 28.62C758.969 28.7667 759.275 28.8867 759.675 28.98C760.089 29.0733 760.602 29.1733 761.215 29.28C761.735 29.3867 762.229 29.5067 762.695 29.64C763.175 29.7733 763.602 29.9467 763.975 30.16C764.349 30.36 764.642 30.6333 764.855 30.98C765.082 31.3133 765.195 31.74 765.195 32.26C765.195 32.9 765.009 33.44 764.635 33.88C764.275 34.32 763.755 34.66 763.075 34.9C762.395 35.1267 761.582 35.24 760.635 35.24C759.795 35.24 759.069 35.1533 758.455 34.98C757.855 34.7933 757.355 34.56 756.955 34.28C756.555 33.9867 756.242 33.68 756.015 33.36C755.802 33.0267 755.655 32.7133 755.575 32.42C755.495 32.1267 755.469 31.8867 755.495 31.7Z" fill="black"/>
<path d="M797.062 22.5345C797.384 21.6639 798.616 21.6639 798.938 22.5345L800.001 25.408C800.102 25.6818 800.318 25.8976 800.592 25.9988L803.465 27.0621C804.336 27.3843 804.336 28.6157 803.465 28.9379L800.592 30.0012C800.318 30.1024 800.102 30.3182 800.001 30.592L798.938 33.4655C798.616 34.3361 797.384 34.3361 797.062 33.4655L795.999 30.592C795.898 30.3182 795.682 30.1024 795.408 30.0012L792.535 28.9379C791.664 28.6157 791.664 27.3843 792.535 27.0621L795.408 25.9988C795.682 25.8976 795.898 25.6818 795.999 25.408L797.062 22.5345Z" fill="black"/>
<path d="M833.84 30.8V28.68H839.76C840.467 28.68 841.027 28.4933 841.44 28.12C841.853 27.7333 842.06 27.2 842.06 26.52C842.06 25.8133 841.853 25.2733 841.44 24.9C841.027 24.5267 840.467 24.34 839.76 24.34H834.16V35H831.5V22.06H839.52C840.24 22.06 840.913 22.1467 841.54 22.32C842.18 22.4933 842.733 22.76 843.2 23.12C843.68 23.48 844.053 23.94 844.32 24.5C844.587 25.06 844.72 25.7333 844.72 26.52C844.72 27.2933 844.587 27.9533 844.32 28.5C844.053 29.0467 843.68 29.4933 843.2 29.84C842.733 30.1733 842.18 30.42 841.54 30.58C840.913 30.7267 840.24 30.8 839.52 30.8H833.84ZM851.392 35.22C850.405 35.22 849.505 35.0067 848.692 34.58C847.892 34.14 847.252 33.5333 846.772 32.76C846.305 31.9733 846.072 31.0667 846.072 30.04C846.072 28.9867 846.312 28.0733 846.792 27.3C847.272 26.5267 847.918 25.9267 848.732 25.5C849.558 25.06 850.492 24.84 851.532 24.84C852.678 24.84 853.598 25.0733 854.292 25.54C854.998 25.9933 855.512 26.6133 855.832 27.4C856.152 28.1867 856.312 29.0667 856.312 30.04C856.312 30.6267 856.218 31.2267 856.032 31.84C855.845 32.44 855.558 33 855.172 33.52C854.785 34.0267 854.278 34.44 853.652 34.76C853.025 35.0667 852.272 35.22 851.392 35.22ZM852.232 33.22C853.018 33.22 853.698 33.0867 854.272 32.82C854.845 32.5533 855.285 32.18 855.592 31.7C855.898 31.22 856.052 30.6667 856.052 30.04C856.052 29.36 855.892 28.7867 855.572 28.32C855.265 27.84 854.825 27.48 854.252 27.24C853.692 26.9867 853.018 26.86 852.232 26.86C851.125 26.86 850.265 27.1533 849.652 27.74C849.038 28.3133 848.732 29.08 848.732 30.04C848.732 30.68 848.878 31.24 849.172 31.72C849.465 32.1867 849.872 32.5533 850.392 32.82C850.925 33.0867 851.538 33.22 852.232 33.22ZM856.052 25.06H858.652V35H856.232C856.232 35 856.212 34.8733 856.172 34.62C856.145 34.3533 856.118 34.02 856.092 33.62C856.065 33.22 856.052 32.8267 856.052 32.44V25.06ZM860.305 25.06H868.025V27.08H860.305V25.06ZM862.865 22.34H865.465V35H862.865V22.34ZM872.657 20.7V22.98H869.637V20.7H872.657ZM869.837 25.06H872.437V35H869.837V25.06ZM875.028 25.06H877.628V35H875.028V25.06ZM882.248 24.84C882.861 24.84 883.428 24.92 883.948 25.08C884.468 25.24 884.921 25.4867 885.308 25.82C885.695 26.1533 885.995 26.58 886.208 27.1C886.421 27.6067 886.528 28.2133 886.528 28.92V35H883.928V29.38C883.928 28.54 883.721 27.9267 883.308 27.54C882.908 27.14 882.248 26.94 881.328 26.94C880.635 26.94 880.008 27.0733 879.448 27.34C878.888 27.6067 878.435 27.9467 878.088 28.36C877.741 28.76 877.541 29.18 877.488 29.62L877.468 28.6C877.535 28.1333 877.688 27.68 877.928 27.24C878.168 26.8 878.488 26.4 878.888 26.04C879.301 25.6667 879.788 25.3733 880.348 25.16C880.908 24.9467 881.541 24.84 882.248 24.84ZM888.495 31.7H890.895C891.042 32.1533 891.342 32.5267 891.795 32.82C892.262 33.1 892.869 33.24 893.615 33.24C894.122 33.24 894.515 33.1933 894.795 33.1C895.075 33.0067 895.269 32.8733 895.375 32.7C895.482 32.5133 895.535 32.3067 895.535 32.08C895.535 31.8 895.449 31.5867 895.275 31.44C895.102 31.28 894.835 31.1533 894.475 31.06C894.115 30.9667 893.655 30.88 893.095 30.8C892.535 30.7067 891.995 30.5933 891.475 30.46C890.955 30.3267 890.495 30.1533 890.095 29.94C889.695 29.7133 889.375 29.4333 889.135 29.1C888.909 28.7533 888.795 28.3333 888.795 27.84C888.795 27.36 888.909 26.9333 889.135 26.56C889.375 26.1867 889.702 25.8733 890.115 25.62C890.542 25.3667 891.035 25.1733 891.595 25.04C892.169 24.9067 892.782 24.84 893.435 24.84C894.422 24.84 895.242 24.9867 895.895 25.28C896.549 25.56 897.035 25.96 897.355 26.48C897.689 26.9867 897.855 27.5733 897.855 28.24H895.555C895.449 27.7467 895.235 27.3933 894.915 27.18C894.595 26.9533 894.102 26.84 893.435 26.84C892.782 26.84 892.289 26.94 891.955 27.14C891.622 27.34 891.455 27.6133 891.455 27.96C891.455 28.24 891.555 28.46 891.755 28.62C891.969 28.7667 892.275 28.8867 892.675 28.98C893.089 29.0733 893.602 29.1733 894.215 29.28C894.735 29.3867 895.229 29.5067 895.695 29.64C896.175 29.7733 896.602 29.9467 896.975 30.16C897.349 30.36 897.642 30.6333 897.855 30.98C898.082 31.3133 898.195 31.74 898.195 32.26C898.195 32.9 898.009 33.44 897.635 33.88C897.275 34.32 896.755 34.66 896.075 34.9C895.395 35.1267 894.582 35.24 893.635 35.24C892.795 35.24 892.069 35.1533 891.455 34.98C890.855 34.7933 890.355 34.56 889.955 34.28C889.555 33.9867 889.242 33.68 889.015 33.36C888.802 33.0267 888.655 32.7133 888.575 32.42C888.495 32.1267 888.469 31.8867 888.495 31.7Z" fill="black"/>
<path d="M930.062 22.5345C930.384 21.6639 931.616 21.6639 931.938 22.5345L933.001 25.408C933.102 25.6818 933.318 25.8976 933.592 25.9988L936.465 27.0621C937.336 27.3843 937.336 28.6157 936.465 28.9379L933.592 30.0012C933.318 30.1024 933.102 30.3182 933.001 30.592L931.938 33.4655C931.616 34.3361 930.384 34.3361 930.062 33.4655L928.999 30.592C928.898 30.3182 928.682 30.1024 928.408 30.0012L925.535 28.9379C924.664 28.6157 924.664 27.3843 925.535 27.0621L928.408 25.9988C928.682 25.8976 928.898 25.6818 928.999 25.408L930.062 22.5345Z" fill="black"/>
<path d="M966.84 30.8V28.68H972.76C973.467 28.68 974.027 28.4933 974.44 28.12C974.853 27.7333 975.06 27.2 975.06 26.52C975.06 25.8133 974.853 25.2733 974.44 24.9C974.027 24.5267 973.467 24.34 972.76 24.34H967.16V35H964.5V22.06H972.52C973.24 22.06 973.913 22.1467 974.54 22.32C975.18 22.4933 975.733 22.76 976.2 23.12C976.68 23.48 977.053 23.94 977.32 24.5C977.587 25.06 977.72 25.7333 977.72 26.52C977.72 27.2933 977.587 27.9533 977.32 28.5C977.053 29.0467 976.68 29.4933 976.2 29.84C975.733 30.1733 975.18 30.42 974.54 30.58C973.913 30.7267 973.24 30.8 972.52 30.8H966.84ZM984.392 35.22C983.405 35.22 982.505 35.0067 981.692 34.58C980.892 34.14 980.252 33.5333 979.772 32.76C979.305 31.9733 979.072 31.0667 979.072 30.04C979.072 28.9867 979.312 28.0733 979.792 27.3C980.272 26.5267 980.918 25.9267 981.732 25.5C982.558 25.06 983.492 24.84 984.532 24.84C985.678 24.84 986.598 25.0733 987.292 25.54C987.998 25.9933 988.512 26.6133 988.832 27.4C989.152 28.1867 989.312 29.0667 989.312 30.04C989.312 30.6267 989.218 31.2267 989.032 31.84C988.845 32.44 988.558 33 988.172 33.52C987.785 34.0267 987.278 34.44 986.652 34.76C986.025 35.0667 985.272 35.22 984.392 35.22ZM985.232 33.22C986.018 33.22 986.698 33.0867 987.272 32.82C987.845 32.5533 988.285 32.18 988.592 31.7C988.898 31.22 989.052 30.6667 989.052 30.04C989.052 29.36 988.892 28.7867 988.572 28.32C988.265 27.84 987.825 27.48 987.252 27.24C986.692 26.9867 986.018 26.86 985.232 26.86C984.125 26.86 983.265 27.1533 982.652 27.74C982.038 28.3133 981.732 29.08 981.732 30.04C981.732 30.68 981.878 31.24 982.172 31.72C982.465 32.1867 982.872 32.5533 983.392 32.82C983.925 33.0867 984.538 33.22 985.232 33.22ZM989.052 25.06H991.652V35H989.232C989.232 35 989.212 34.8733 989.172 34.62C989.145 34.3533 989.118 34.02 989.092 33.62C989.065 33.22 989.052 32.8267 989.052 32.44V25.06ZM993.305 25.06H1001.02V27.08H993.305V25.06ZM995.865 22.34H998.465V35H995.865V22.34ZM1005.66 20.7V22.98H1002.64V20.7H1005.66ZM1002.84 25.06H1005.44V35H1002.84V25.06ZM1008.03 25.06H1010.63V35H1008.03V25.06ZM1015.25 24.84C1015.86 24.84 1016.43 24.92 1016.95 25.08C1017.47 25.24 1017.92 25.4867 1018.31 25.82C1018.69 26.1533 1018.99 26.58 1019.21 27.1C1019.42 27.6067 1019.53 28.2133 1019.53 28.92V35H1016.93V29.38C1016.93 28.54 1016.72 27.9267 1016.31 27.54C1015.91 27.14 1015.25 26.94 1014.33 26.94C1013.63 26.94 1013.01 27.0733 1012.45 27.34C1011.89 27.6067 1011.43 27.9467 1011.09 28.36C1010.74 28.76 1010.54 29.18 1010.49 29.62L1010.47 28.6C1010.53 28.1333 1010.69 27.68 1010.93 27.24C1011.17 26.8 1011.49 26.4 1011.89 26.04C1012.3 25.6667 1012.79 25.3733 1013.35 25.16C1013.91 24.9467 1014.54 24.84 1015.25 24.84ZM1021.5 31.7H1023.9C1024.04 32.1533 1024.34 32.5267 1024.8 32.82C1025.26 33.1 1025.87 33.24 1026.62 33.24C1027.12 33.24 1027.52 33.1933 1027.8 33.1C1028.08 33.0067 1028.27 32.8733 1028.38 32.7C1028.48 32.5133 1028.54 32.3067 1028.54 32.08C1028.54 31.8 1028.45 31.5867 1028.28 31.44C1028.1 31.28 1027.84 31.1533 1027.48 31.06C1027.12 30.9667 1026.66 30.88 1026.1 30.8C1025.54 30.7067 1025 30.5933 1024.48 30.46C1023.96 30.3267 1023.5 30.1533 1023.1 29.94C1022.7 29.7133 1022.38 29.4333 1022.14 29.1C1021.91 28.7533 1021.8 28.3333 1021.8 27.84C1021.8 27.36 1021.91 26.9333 1022.14 26.56C1022.38 26.1867 1022.7 25.8733 1023.12 25.62C1023.54 25.3667 1024.04 25.1733 1024.6 25.04C1025.17 24.9067 1025.78 24.84 1026.44 24.84C1027.42 24.84 1028.24 24.9867 1028.9 25.28C1029.55 25.56 1030.04 25.96 1030.36 26.48C1030.69 26.9867 1030.86 27.5733 1030.86 28.24H1028.56C1028.45 27.7467 1028.24 27.3933 1027.92 27.18C1027.6 26.9533 1027.1 26.84 1026.44 26.84C1025.78 26.84 1025.29 26.94 1024.96 27.14C1024.62 27.34 1024.46 27.6133 1024.46 27.96C1024.46 28.24 1024.56 28.46 1024.76 28.62C1024.97 28.7667 1025.28 28.8867 1025.68 28.98C1026.09 29.0733 1026.6 29.1733 1027.22 29.28C1027.74 29.3867 1028.23 29.5067 1028.7 29.64C1029.18 29.7733 1029.6 29.9467 1029.98 30.16C1030.35 30.36 1030.64 30.6333 1030.86 30.98C1031.08 31.3133 1031.2 31.74 1031.2 32.26C1031.2 32.9 1031.01 33.44 1030.64 33.88C1030.28 34.32 1029.76 34.66 1029.08 34.9C1028.4 35.1267 1027.58 35.24 1026.64 35.24C1025.8 35.24 1025.07 35.1533 1024.46 34.98C1023.86 34.7933 1023.36 34.56 1022.96 34.28C1022.56 33.9867 1022.24 33.68 1022.02 33.36C1021.8 33.0267 1021.66 32.7133 1021.58 32.42C1021.5 32.1267 1021.47 31.8867 1021.5 31.7Z" fill="black"/>
<path d="M1063.06 22.5345C1063.38 21.6639 1064.62 21.6639 1064.94 22.5345L1066 25.408C1066.1 25.6818 1066.32 25.8976 1066.59 25.9988L1069.47 27.0621C1070.34 27.3843 1070.34 28.6157 1069.47 28.9379L1066.59 30.0012C1066.32 30.1024 1066.1 30.3182 1066 30.592L1064.94 33.4655C1064.62 34.3361 1063.38 34.3361 1063.06 33.4655L1062 30.592C1061.9 30.3182 1061.68 30.1024 1061.41 30.0012L1058.53 28.9379C1057.66 28.6157 1057.66 27.3843 1058.53 27.0621L1061.41 25.9988C1061.68 25.8976 1061.9 25.6818 1062 25.408L1063.06 22.5345Z" fill="black"/>
<path d="M1099.84 30.8V28.68H1105.76C1106.47 28.68 1107.03 28.4933 1107.44 28.12C1107.85 27.7333 1108.06 27.2 1108.06 26.52C1108.06 25.8133 1107.85 25.2733 1107.44 24.9C1107.03 24.5267 1106.47 24.34 1105.76 24.34H1100.16V35H1097.5V22.06H1105.52C1106.24 22.06 1106.91 22.1467 1107.54 22.32C1108.18 22.4933 1108.73 22.76 1109.2 23.12C1109.68 23.48 1110.05 23.94 1110.32 24.5C1110.59 25.06 1110.72 25.7333 1110.72 26.52C1110.72 27.2933 1110.59 27.9533 1110.32 28.5C1110.05 29.0467 1109.68 29.4933 1109.2 29.84C1108.73 30.1733 1108.18 30.42 1107.54 30.58C1106.91 30.7267 1106.24 30.8 1105.52 30.8H1099.84ZM1117.39 35.22C1116.4 35.22 1115.5 35.0067 1114.69 34.58C1113.89 34.14 1113.25 33.5333 1112.77 32.76C1112.3 31.9733 1112.07 31.0667 1112.07 30.04C1112.07 28.9867 1112.31 28.0733 1112.79 27.3C1113.27 26.5267 1113.92 25.9267 1114.73 25.5C1115.56 25.06 1116.49 24.84 1117.53 24.84C1118.68 24.84 1119.6 25.0733 1120.29 25.54C1121 25.9933 1121.51 26.6133 1121.83 27.4C1122.15 28.1867 1122.31 29.0667 1122.31 30.04C1122.31 30.6267 1122.22 31.2267 1122.03 31.84C1121.84 32.44 1121.56 33 1121.17 33.52C1120.78 34.0267 1120.28 34.44 1119.65 34.76C1119.02 35.0667 1118.27 35.22 1117.39 35.22ZM1118.23 33.22C1119.02 33.22 1119.7 33.0867 1120.27 32.82C1120.84 32.5533 1121.28 32.18 1121.59 31.7C1121.9 31.22 1122.05 30.6667 1122.05 30.04C1122.05 29.36 1121.89 28.7867 1121.57 28.32C1121.26 27.84 1120.82 27.48 1120.25 27.24C1119.69 26.9867 1119.02 26.86 1118.23 26.86C1117.12 26.86 1116.26 27.1533 1115.65 27.74C1115.04 28.3133 1114.73 29.08 1114.73 30.04C1114.73 30.68 1114.88 31.24 1115.17 31.72C1115.46 32.1867 1115.87 32.5533 1116.39 32.82C1116.92 33.0867 1117.54 33.22 1118.23 33.22ZM1122.05 25.06H1124.65V35H1122.23C1122.23 35 1122.21 34.8733 1122.17 34.62C1122.14 34.3533 1122.12 34.02 1122.09 33.62C1122.06 33.22 1122.05 32.8267 1122.05 32.44V25.06ZM1126.3 25.06H1134.02V27.08H1126.3V25.06ZM1128.86 22.34H1131.46V35H1128.86V22.34ZM1138.66 20.7V22.98H1135.64V20.7H1138.66ZM1135.84 25.06H1138.44V35H1135.84V25.06ZM1141.03 25.06H1143.63V35H1141.03V25.06ZM1148.25 24.84C1148.86 24.84 1149.43 24.92 1149.95 25.08C1150.47 25.24 1150.92 25.4867 1151.31 25.82C1151.69 26.1533 1151.99 26.58 1152.21 27.1C1152.42 27.6067 1152.53 28.2133 1152.53 28.92V35H1149.93V29.38C1149.93 28.54 1149.72 27.9267 1149.31 27.54C1148.91 27.14 1148.25 26.94 1147.33 26.94C1146.63 26.94 1146.01 27.0733 1145.45 27.34C1144.89 27.6067 1144.43 27.9467 1144.09 28.36C1143.74 28.76 1143.54 29.18 1143.49 29.62L1143.47 28.6C1143.53 28.1333 1143.69 27.68 1143.93 27.24C1144.17 26.8 1144.49 26.4 1144.89 26.04C1145.3 25.6667 1145.79 25.3733 1146.35 25.16C1146.91 24.9467 1147.54 24.84 1148.25 24.84ZM1154.5 31.7H1156.9C1157.04 32.1533 1157.34 32.5267 1157.8 32.82C1158.26 33.1 1158.87 33.24 1159.62 33.24C1160.12 33.24 1160.52 33.1933 1160.8 33.1C1161.08 33.0067 1161.27 32.8733 1161.38 32.7C1161.48 32.5133 1161.54 32.3067 1161.54 32.08C1161.54 31.8 1161.45 31.5867 1161.28 31.44C1161.1 31.28 1160.84 31.1533 1160.48 31.06C1160.12 30.9667 1159.66 30.88 1159.1 30.8C1158.54 30.7067 1158 30.5933 1157.48 30.46C1156.96 30.3267 1156.5 30.1533 1156.1 29.94C1155.7 29.7133 1155.38 29.4333 1155.14 29.1C1154.91 28.7533 1154.8 28.3333 1154.8 27.84C1154.8 27.36 1154.91 26.9333 1155.14 26.56C1155.38 26.1867 1155.7 25.8733 1156.12 25.62C1156.54 25.3667 1157.04 25.1733 1157.6 25.04C1158.17 24.9067 1158.78 24.84 1159.44 24.84C1160.42 24.84 1161.24 24.9867 1161.9 25.28C1162.55 25.56 1163.04 25.96 1163.36 26.48C1163.69 26.9867 1163.86 27.5733 1163.86 28.24H1161.56C1161.45 27.7467 1161.24 27.3933 1160.92 27.18C1160.6 26.9533 1160.1 26.84 1159.44 26.84C1158.78 26.84 1158.29 26.94 1157.96 27.14C1157.62 27.34 1157.46 27.6133 1157.46 27.96C1157.46 28.24 1157.56 28.46 1157.76 28.62C1157.97 28.7667 1158.28 28.8867 1158.68 28.98C1159.09 29.0733 1159.6 29.1733 1160.22 29.28C1160.74 29.3867 1161.23 29.5067 1161.7 29.64C1162.18 29.7733 1162.6 29.9467 1162.98 30.16C1163.35 30.36 1163.64 30.6333 1163.86 30.98C1164.08 31.3133 1164.2 31.74 1164.2 32.26C1164.2 32.9 1164.01 33.44 1163.64 33.88C1163.28 34.32 1162.76 34.66 1162.08 34.9C1161.4 35.1267 1160.58 35.24 1159.64 35.24C1158.8 35.24 1158.07 35.1533 1157.46 34.98C1156.86 34.7933 1156.36 34.56 1155.96 34.28C1155.56 33.9867 1155.24 33.68 1155.02 33.36C1154.8 33.0267 1154.66 32.7133 1154.58 32.42C1154.5 32.1267 1154.47 31.8867 1154.5 31.7Z" fill="black"/>
<path d="M1196.06 22.5345C1196.38 21.6639 1197.62 21.6639 1197.94 22.5345L1199 25.408C1199.1 25.6818 1199.32 25.8976 1199.59 25.9988L1202.47 27.0621C1203.34 27.3843 1203.34 28.6157 1202.47 28.9379L1199.59 30.0012C1199.32 30.1024 1199.1 30.3182 1199 30.592L1197.94 33.4655C1197.62 34.3361 1196.38 34.3361 1196.06 33.4655L1195 30.592C1194.9 30.3182 1194.68 30.1024 1194.41 30.0012L1191.53 28.9379C1190.66 28.6157 1190.66 27.3843 1191.53 27.0621L1194.41 25.9988C1194.68 25.8976 1194.9 25.6818 1195 25.408L1196.06 22.5345Z" fill="black"/>
<path d="M1232.84 30.8V28.68H1238.76C1239.47 28.68 1240.03 28.4933 1240.44 28.12C1240.85 27.7333 1241.06 27.2 1241.06 26.52C1241.06 25.8133 1240.85 25.2733 1240.44 24.9C1240.03 24.5267 1239.47 24.34 1238.76 24.34H1233.16V35H1230.5V22.06H1238.52C1239.24 22.06 1239.91 22.1467 1240.54 22.32C1241.18 22.4933 1241.73 22.76 1242.2 23.12C1242.68 23.48 1243.05 23.94 1243.32 24.5C1243.59 25.06 1243.72 25.7333 1243.72 26.52C1243.72 27.2933 1243.59 27.9533 1243.32 28.5C1243.05 29.0467 1242.68 29.4933 1242.2 29.84C1241.73 30.1733 1241.18 30.42 1240.54 30.58C1239.91 30.7267 1239.24 30.8 1238.52 30.8H1232.84ZM1250.39 35.22C1249.4 35.22 1248.5 35.0067 1247.69 34.58C1246.89 34.14 1246.25 33.5333 1245.77 32.76C1245.3 31.9733 1245.07 31.0667 1245.07 30.04C1245.07 28.9867 1245.31 28.0733 1245.79 27.3C1246.27 26.5267 1246.92 25.9267 1247.73 25.5C1248.56 25.06 1249.49 24.84 1250.53 24.84C1251.68 24.84 1252.6 25.0733 1253.29 25.54C1254 25.9933 1254.51 26.6133 1254.83 27.4C1255.15 28.1867 1255.31 29.0667 1255.31 30.04C1255.31 30.6267 1255.22 31.2267 1255.03 31.84C1254.84 32.44 1254.56 33 1254.17 33.52C1253.78 34.0267 1253.28 34.44 1252.65 34.76C1252.02 35.0667 1251.27 35.22 1250.39 35.22ZM1251.23 33.22C1252.02 33.22 1252.7 33.0867 1253.27 32.82C1253.84 32.5533 1254.28 32.18 1254.59 31.7C1254.9 31.22 1255.05 30.6667 1255.05 30.04C1255.05 29.36 1254.89 28.7867 1254.57 28.32C1254.26 27.84 1253.82 27.48 1253.25 27.24C1252.69 26.9867 1252.02 26.86 1251.23 26.86C1250.12 26.86 1249.26 27.1533 1248.65 27.74C1248.04 28.3133 1247.73 29.08 1247.73 30.04C1247.73 30.68 1247.88 31.24 1248.17 31.72C1248.46 32.1867 1248.87 32.5533 1249.39 32.82C1249.92 33.0867 1250.54 33.22 1251.23 33.22ZM1255.05 25.06H1257.65V35H1255.23C1255.23 35 1255.21 34.8733 1255.17 34.62C1255.14 34.3533 1255.12 34.02 1255.09 33.62C1255.06 33.22 1255.05 32.8267 1255.05 32.44V25.06ZM1259.3 25.06H1267.02V27.08H1259.3V25.06ZM1261.86 22.34H1264.46V35H1261.86V22.34ZM1271.66 20.7V22.98H1268.64V20.7H1271.66ZM1268.84 25.06H1271.44V35H1268.84V25.06ZM1274.03 25.06H1276.63V35H1274.03V25.06ZM1281.25 24.84C1281.86 24.84 1282.43 24.92 1282.95 25.08C1283.47 25.24 1283.92 25.4867 1284.31 25.82C1284.69 26.1533 1284.99 26.58 1285.21 27.1C1285.42 27.6067 1285.53 28.2133 1285.53 28.92V35H1282.93V29.38C1282.93 28.54 1282.72 27.9267 1282.31 27.54C1281.91 27.14 1281.25 26.94 1280.33 26.94C1279.63 26.94 1279.01 27.0733 1278.45 27.34C1277.89 27.6067 1277.43 27.9467 1277.09 28.36C1276.74 28.76 1276.54 29.18 1276.49 29.62L1276.47 28.6C1276.53 28.1333 1276.69 27.68 1276.93 27.24C1277.17 26.8 1277.49 26.4 1277.89 26.04C1278.3 25.6667 1278.79 25.3733 1279.35 25.16C1279.91 24.9467 1280.54 24.84 1281.25 24.84ZM1287.5 31.7H1289.9C1290.04 32.1533 1290.34 32.5267 1290.8 32.82C1291.26 33.1 1291.87 33.24 1292.62 33.24C1293.12 33.24 1293.52 33.1933 1293.8 33.1C1294.08 33.0067 1294.27 32.8733 1294.38 32.7C1294.48 32.5133 1294.54 32.3067 1294.54 32.08C1294.54 31.8 1294.45 31.5867 1294.28 31.44C1294.1 31.28 1293.84 31.1533 1293.48 31.06C1293.12 30.9667 1292.66 30.88 1292.1 30.8C1291.54 30.7067 1291 30.5933 1290.48 30.46C1289.96 30.3267 1289.5 30.1533 1289.1 29.94C1288.7 29.7133 1288.38 29.4333 1288.14 29.1C1287.91 28.7533 1287.8 28.3333 1287.8 27.84C1287.8 27.36 1287.91 26.9333 1288.14 26.56C1288.38 26.1867 1288.7 25.8733 1289.12 25.62C1289.54 25.3667 1290.04 25.1733 1290.6 25.04C1291.17 24.9067 1291.78 24.84 1292.44 24.84C1293.42 24.84 1294.24 24.9867 1294.9 25.28C1295.55 25.56 1296.04 25.96 1296.36 26.48C1296.69 26.9867 1296.86 27.5733 1296.86 28.24H1294.56C1294.45 27.7467 1294.24 27.3933 1293.92 27.18C1293.6 26.9533 1293.1 26.84 1292.44 26.84C1291.78 26.84 1291.29 26.94 1290.96 27.14C1290.62 27.34 1290.46 27.6133 1290.46 27.96C1290.46 28.24 1290.56 28.46 1290.76 28.62C1290.97 28.7667 1291.28 28.8867 1291.68 28.98C1292.09 29.0733 1292.6 29.1733 1293.22 29.28C1293.74 29.3867 1294.23 29.5067 1294.7 29.64C1295.18 29.7733 1295.6 29.9467 1295.98 30.16C1296.35 30.36 1296.64 30.6333 1296.86 30.98C1297.08 31.3133 1297.2 31.74 1297.2 32.26C1297.2 32.9 1297.01 33.44 1296.64 33.88C1296.28 34.32 1295.76 34.66 1295.08 34.9C1294.4 35.1267 1293.58 35.24 1292.64 35.24C1291.8 35.24 1291.07 35.1533 1290.46 34.98C1289.86 34.7933 1289.36 34.56 1288.96 34.28C1288.56 33.9867 1288.24 33.68 1288.02 33.36C1287.8 33.0267 1287.66 32.7133 1287.58 32.42C1287.5 32.1267 1287.47 31.8867 1287.5 31.7Z" fill="black"/>
</g>
<defs>
<clipPath id="clip0_3119_1545">
<rect width="1280" height="56" fill="white"/>
</clipPath>
</defs>
</svg>
